<?xml version="1.0" encoding="UTF-8"?>
<svg xmlns="http://www.w3.org/2000/svg" width="1200" height="630" viewBox="0 0 1200 630">
<rect width="1200" height="630" fill="#0a0d0f"/>
<circle cx="1058" cy="-24" r="286" fill="#ff5148" opacity="0.07"/>
<path d="M0 0H1200V630H0Z" fill="none" stroke="#273037" stroke-width="2"/>
<g font-family="DIN Alternate, SFMono-Regular, Menlo, monospace">
<text x="58" y="62" fill="#f2ede4" font-size="18" font-weight="700" letter-spacing="3">A-SHARE PULSE</text>
<text x="1142" y="62" fill="#9aa5ad" font-size="13" text-anchor="end" letter-spacing="2">DAILY MARKET BRIEF / 每日市场简报</text>
<line x1="58" y1="86" x2="1142" y2="86" stroke="#273037"/>
<text x="58" y="132" fill="#9aa5ad" font-size="13" letter-spacing="2">CROSS-MARKET RISK TEMPERATURE</text>
<text x="52" y="286" fill="#2cc17a" font-size="168" font-weight="800" letter-spacing="-12">-30</text>
<text x="58" y="336" fill="#f2ede4" font-size="38" font-weight="700">防守优先</text>
<text x="58" y="370" fill="#9aa5ad" font-size="14">CONFIDENCE / 中　UPDATED / 2026-09-25 17:03 CST</text>
<line x1="446" y1="118" x2="446" y2="382" stroke="#273037"/>
<text x="486" y="134" fill="#9aa5ad" font-size="12" letter-spacing="2">A-SHARE CLOSE</text>
<text x="486" y="184" fill="#f2ede4" font-size="39" font-weight="700">3,888.37</text>
<text x="727" y="184" fill="#2cc17a" font-size="28" font-weight="700">-1.22%</text>
<text x="486" y="218" fill="#68737b" font-size="13">SHANGHAI · 2026-09-24 · TURNOVER 16,534 亿</text>
<text x="486" y="270" fill="#9aa5ad" font-size="12" letter-spacing="2">MARKET BREADTH</text>
<text x="486" y="318" fill="#ff5148" font-size="31" font-weight="700">↑ 1,134</text>
<text x="670" y="318" fill="#2cc17a" font-size="31" font-weight="700">↓ 4,352</text>
<text x="856" y="318" fill="#e9c86f" font-size="19" font-weight="700">涨停 52</text>
<text x="856" y="350" fill="#9aa5ad" font-size="14">炸板率 16.1%</text>
<line x1="58" y1="408" x2="1142" y2="408" stroke="#273037"/>
<text x="58" y="442" fill="#9aa5ad" font-size="12" letter-spacing="1.5">S&amp;P 500</text>
<text x="58" y="478" fill="#2cc17a" font-size="27" font-weight="700">-0.02%</text>
<text x="314" y="442" fill="#68737b" font-size="10" text-anchor="end">LATEST</text>
<line x1="321" y1="424" x2="321" y2="486" stroke="#273037"/>
<text x="329" y="442" fill="#9aa5ad" font-size="12" letter-spacing="1.5">NASDAQ</text>
<text x="329" y="478" fill="#ff5148" font-size="27" font-weight="700">+0.01%</text>
<text x="585" y="442" fill="#68737b" font-size="10" text-anchor="end">LATEST</text>
<line x1="592" y1="424" x2="592" y2="486" stroke="#273037"/>
<text x="600" y="442" fill="#9aa5ad" font-size="12" letter-spacing="1.5">NIKKEI</text>
<text x="600" y="478" fill="#ff5148" font-size="27" font-weight="700">+1.38%</text>
<text x="856" y="442" fill="#68737b" font-size="10" text-anchor="end">STALE</text>
<line x1="863" y1="424" x2="863" y2="486" stroke="#273037"/>
<text x="871" y="442" fill="#9aa5ad" font-size="12" letter-spacing="1.5">HANG SENG</text>
<text x="871" y="478" fill="#2cc17a" font-size="27" font-weight="700">-1.01%</text>
<text x="1127" y="442" fill="#68737b" font-size="10" text-anchor="end">LATEST</text>
<line x1="58" y1="500" x2="1142" y2="500" stroke="#273037"/>
<text x="58" y="527" fill="#9aa5ad" font-size="10" font-weight="700" letter-spacing="1.2">CROSS ASSETS</text>
<text x="218" y="516" fill="#68737b" font-size="9" letter-spacing="1">A50</text>
<text x="218" y="537" fill="#ff5148" font-size="13" font-weight="700">14,195.88 / +0.10%</text>
<text x="402" y="516" fill="#68737b" font-size="9" letter-spacing="1">CNH</text>
<text x="402" y="537" fill="#ff5148" font-size="13" font-weight="700">6.7231 / +0.11%</text>
<text x="586" y="516" fill="#68737b" font-size="9" letter-spacing="1">DXY</text>
<text x="586" y="537" fill="#2cc17a" font-size="13" font-weight="700">101.11 / -0.13%</text>
<text x="770" y="516" fill="#68737b" font-size="9" letter-spacing="1">GOLD</text>
<text x="770" y="537" fill="#ff5148" font-size="13" font-weight="700">4,331.99 / +0.79%</text>
<text x="954" y="516" fill="#68737b" font-size="9" letter-spacing="1">WTI</text>
<text x="954" y="537" fill="#2cc17a" font-size="13" font-weight="700">92.31 / -2.43%</text>
<rect x="58" y="550" width="1084" height="34" fill="#101519" stroke="#273037"/>
<text x="78" y="572" fill="#e9c86f" font-size="10" font-weight="700" letter-spacing="1.2">RESEARCH NOTE</text>
<text x="218" y="572" fill="#f2ede4" font-size="14">研究上优先压力测试与回撤控制，避免仅凭单条利好逆势下注。</text>
<text x="58" y="610" fill="#68737b" font-size="10">MARKETS PARTIAL · CROSS FRESH · VIX STALE · US10Y STALE · NEWS FRESH · RESEARCH ONLY, NOT INVESTMENT ADVICE</text>
<text x="1142" y="610" fill="#9aa5ad" font-size="11" text-anchor="end">ychenfen.github.io/a-share-daily</text>
</g>
</svg>