<?xml version="1.0" encoding="UTF-8"?>
<svg xmlns="http://www.w3.org/2000/svg" width="900" height="380" viewBox="0 0 900 380" font-family="-apple-system,Segoe UI,Helvetica,Arial,sans-serif">
<text x="62" y="13" font-size="12" fill="#57606a">上证指数　2025-09-22 ~ 2026-10-09　共 250 个交易日</text>
<line x1="62" y1="18.0" x2="884" y2="18.0" stroke="#d0d7de" stroke-width="1" stroke-dasharray="3 3"/>
<text x="56" y="22.0" font-size="11" fill="#57606a" text-anchor="end">4281</text>
<line x1="62" y1="75.5" x2="884" y2="75.5" stroke="#d0d7de" stroke-width="1" stroke-dasharray="3 3"/>
<text x="56" y="79.5" font-size="11" fill="#57606a" text-anchor="end">4142</text>
<line x1="62" y1="133.0" x2="884" y2="133.0" stroke="#d0d7de" stroke-width="1" stroke-dasharray="3 3"/>
<text x="56" y="137.0" font-size="11" fill="#57606a" text-anchor="end">4003</text>
<line x1="62" y1="190.5" x2="884" y2="190.5" stroke="#d0d7de" stroke-width="1" stroke-dasharray="3 3"/>
<text x="56" y="194.5" font-size="11" fill="#57606a" text-anchor="end">3865</text>
<line x1="62" y1="248.0" x2="884" y2="248.0" stroke="#d0d7de" stroke-width="1" stroke-dasharray="3 3"/>
<text x="56" y="252.0" font-size="11" fill="#57606a" text-anchor="end">3726</text>
<polyline points="62.0,205.4 65.3,208.2 68.6,195.0 71.9,195.2 75.2,205.6 78.5,191.4 81.8,183.0 85.1,161.8 88.4,177.1 91.7,180.2 95.0,190.2 98.3,170.8 101.6,169.1 104.9,200.8 108.2,190.8 111.5,169.1 114.8,170.1 118.1,166.5 121.4,155.0 124.7,135.7 128.0,139.3 131.3,127.6 134.6,139.8 137.9,153.1 141.2,144.1 144.5,150.9 147.8,147.1 151.1,131.2 154.4,135.4 157.7,126.7 161.0,133.2 164.3,134.3 167.6,122.2 170.9,138.3 174.2,146.0 177.5,159.3 180.8,156.5 184.1,163.0 187.4,202.8 190.7,202.0 194.0,188.3 197.3,190.7 200.7,186.1 204.0,180.6 207.3,170.0 210.6,176.8 213.9,185.0 217.2,185.9 220.5,174.7 223.8,165.9 227.1,171.9 230.4,175.6 233.7,186.9 237.0,180.3 240.3,189.1 243.6,207.0 246.9,188.2 250.2,185.6 253.5,179.8 256.8,168.6 260.1,167.6 263.4,158.9 266.7,151.1 270.0,149.4 273.3,148.8 276.6,148.8 279.9,147.3 283.2,124.7 286.5,99.7 289.8,98.8 293.1,100.0 296.4,84.5 299.7,65.9 303.0,76.9 306.3,82.1 309.6,87.7 312.9,92.2 316.2,87.1 319.5,87.3 322.8,85.9 326.1,83.6 329.4,78.0 332.7,79.4 336.0,76.4 339.3,71.7 342.6,68.9 345.9,85.5 349.2,127.9 352.5,106.3 355.8,92.0 359.1,102.9 362.4,107.2 365.7,83.4 369.0,81.2 372.3,79.7 375.6,78.8 378.9,100.4 382.2,85.7 385.5,73.4 388.8,73.6 392.1,66.9 395.4,58.7 398.7,83.5 402.0,100.2 405.3,89.4 408.6,82.9 411.9,94.4 415.2,83.4 418.5,79.1 421.8,80.9 425.1,94.8 428.4,99.3 431.7,113.7 435.0,108.3 438.3,131.7 441.6,152.2 444.9,211.8 448.2,183.6 451.5,162.6 454.8,180.4 458.1,170.2 461.4,166.2 464.7,179.2 468.0,155.7 471.3,167.8 474.7,184.1 478.0,179.9 481.3,136.5 484.6,148.4 487.9,140.1 491.2,139.1 494.5,123.4 497.8,123.1 501.1,111.4 504.4,113.1 507.7,100.4 511.0,99.1 514.3,90.4 517.6,95.7 520.9,101.3 524.2,98.6 527.5,101.8 530.8,89.8 534.1,87.9 537.4,68.0 540.7,59.8 544.0,59.8 547.3,41.1 550.6,45.5 553.9,33.9 557.2,60.7 560.5,78.3 563.8,79.9 567.1,64.1 570.4,67.2 573.7,102.4 577.0,87.6 580.3,71.2 583.6,74.1 586.9,95.5 590.2,93.5 593.5,106.0 596.8,110.5 600.1,103.3 603.4,99.6 606.7,110.4 610.0,122.9 613.3,151.2 616.6,130.2 619.9,137.2 623.2,139.8 626.5,121.3 629.8,94.4 633.1,96.3 636.4,89.6 639.7,96.9 643.0,66.8 646.3,90.4 649.6,88.5 652.9,84.5 656.2,123.1 659.5,103.8 662.8,95.3 666.1,87.8 669.4,122.4 672.7,116.3 676.0,117.3 679.3,138.4 682.6,146.5 685.9,119.2 689.2,136.0 692.5,170.1 695.8,148.0 699.1,152.8 702.4,183.1 705.7,232.1 709.0,218.8 712.3,190.6 715.6,189.5 718.9,185.5 722.2,211.4 725.5,193.1 728.8,211.8 732.1,205.5 735.4,215.3 738.7,203.9 742.0,213.3 745.3,208.0 748.7,184.8 752.0,175.7 755.3,159.2 758.6,148.2 761.9,161.7 765.2,156.5 768.5,164.7 771.8,164.6 775.1,141.6 778.4,138.4 781.7,178.1 785.0,174.3 788.3,173.7 791.6,183.3 794.9,180.2 798.2,170.6 801.5,152.4 804.8,154.2 808.1,140.1 811.4,142.7 814.7,158.7 818.0,158.4 821.3,163.4 824.6,162.3 827.9,159.0 831.2,154.5 834.5,161.6 837.8,180.8 841.1,181.9 844.4,190.6 847.7,179.3 851.0,185.9 854.3,170.9 857.6,155.2 860.9,154.2 864.2,160.7 867.5,180.7 870.8,207.5 874.1,204.7 877.4,199.8 880.7,212.3 884.0,211.6" fill="none" stroke="#c9211e" stroke-width="1.6" stroke-linejoin="round"/>
<text x="56" y="284" font-size="11" fill="#57606a" text-anchor="end">成交额</text>
<rect x="61.0" y="306.3" width="2.0" height="37.7" fill="#8c959f" opacity="0.55"/>
<rect x="64.3" y="299.7" width="2.0" height="44.3" fill="#8c959f" opacity="0.55"/>
<rect x="67.6" y="302.7" width="2.0" height="41.3" fill="#8c959f" opacity="0.55"/>
<rect x="70.9" y="301.9" width="2.0" height="42.1" fill="#8c959f" opacity="0.55"/>
<rect x="74.2" y="305.9" width="2.0" height="38.1" fill="#8c959f" opacity="0.55"/>
<rect x="77.5" y="305.6" width="2.0" height="38.4" fill="#8c959f" opacity="0.55"/>
<rect x="80.8" y="305.3" width="2.0" height="38.7" fill="#8c959f" opacity="0.55"/>
<rect x="84.1" y="296.9" width="2.0" height="47.1" fill="#8c959f" opacity="0.55"/>
<rect x="87.4" y="299.3" width="2.0" height="44.7" fill="#8c959f" opacity="0.55"/>
<rect x="90.7" y="302.2" width="2.0" height="41.8" fill="#8c959f" opacity="0.55"/>
<rect x="94.0" y="298.2" width="2.0" height="45.8" fill="#8c959f" opacity="0.55"/>
<rect x="97.3" y="307.2" width="2.0" height="36.8" fill="#8c959f" opacity="0.55"/>
<rect x="100.6" y="309.7" width="2.0" height="34.3" fill="#8c959f" opacity="0.55"/>
<rect x="103.9" y="309.6" width="2.0" height="34.4" fill="#8c959f" opacity="0.55"/>
<rect x="107.2" y="313.1" width="2.0" height="30.9" fill="#8c959f" opacity="0.55"/>
<rect x="110.5" y="310.7" width="2.0" height="33.3" fill="#8c959f" opacity="0.55"/>
<rect x="113.8" y="314.4" width="2.0" height="29.6" fill="#8c959f" opacity="0.55"/>
<rect x="117.1" y="314.8" width="2.0" height="29.2" fill="#8c959f" opacity="0.55"/>
<rect x="120.4" y="308.9" width="2.0" height="35.1" fill="#8c959f" opacity="0.55"/>
<rect x="123.7" y="302.4" width="2.0" height="41.6" fill="#8c959f" opacity="0.55"/>
<rect x="127.0" y="305.9" width="2.0" height="38.1" fill="#8c959f" opacity="0.55"/>
<rect x="130.3" y="303.9" width="2.0" height="40.1" fill="#8c959f" opacity="0.55"/>
<rect x="133.6" y="301.0" width="2.0" height="43.0" fill="#8c959f" opacity="0.55"/>
<rect x="136.9" y="302.8" width="2.0" height="41.2" fill="#8c959f" opacity="0.55"/>
<rect x="140.2" y="306.6" width="2.0" height="37.4" fill="#8c959f" opacity="0.55"/>
<rect x="143.5" y="310.0" width="2.0" height="34.0" fill="#8c959f" opacity="0.55"/>
<rect x="146.8" y="310.7" width="2.0" height="33.3" fill="#8c959f" opacity="0.55"/>
<rect x="150.1" y="307.5" width="2.0" height="36.5" fill="#8c959f" opacity="0.55"/>
<rect x="153.4" y="308.5" width="2.0" height="35.5" fill="#8c959f" opacity="0.55"/>
<rect x="156.7" y="305.4" width="2.0" height="38.6" fill="#8c959f" opacity="0.55"/>
<rect x="160.0" y="308.6" width="2.0" height="35.4" fill="#8c959f" opacity="0.55"/>
<rect x="163.3" y="309.5" width="2.0" height="34.5" fill="#8c959f" opacity="0.55"/>
<rect x="166.6" y="307.7" width="2.0" height="36.3" fill="#8c959f" opacity="0.55"/>
<rect x="169.9" y="309.2" width="2.0" height="34.8" fill="#8c959f" opacity="0.55"/>
<rect x="173.2" y="310.1" width="2.0" height="33.9" fill="#8c959f" opacity="0.55"/>
<rect x="176.5" y="309.8" width="2.0" height="34.2" fill="#8c959f" opacity="0.55"/>
<rect x="179.8" y="313.3" width="2.0" height="30.7" fill="#8c959f" opacity="0.55"/>
<rect x="183.1" y="313.7" width="2.0" height="30.3" fill="#8c959f" opacity="0.55"/>
<rect x="186.4" y="309.1" width="2.0" height="34.9" fill="#8c959f" opacity="0.55"/>
<rect x="189.7" y="313.3" width="2.0" height="30.7" fill="#8c959f" opacity="0.55"/>
<rect x="193.0" y="311.8" width="2.0" height="32.2" fill="#8c959f" opacity="0.55"/>
<rect x="196.3" y="312.3" width="2.0" height="31.7" fill="#8c959f" opacity="0.55"/>
<rect x="199.6" y="313.6" width="2.0" height="30.4" fill="#8c959f" opacity="0.55"/>
<rect x="202.9" y="315.8" width="2.0" height="28.2" fill="#8c959f" opacity="0.55"/>
<rect x="206.2" y="310.7" width="2.0" height="33.3" fill="#8c959f" opacity="0.55"/>
<rect x="209.5" y="315.7" width="2.0" height="28.3" fill="#8c959f" opacity="0.55"/>
<rect x="212.8" y="314.3" width="2.0" height="29.7" fill="#8c959f" opacity="0.55"/>
<rect x="216.1" y="316.5" width="2.0" height="27.5" fill="#8c959f" opacity="0.55"/>
<rect x="219.4" y="313.4" width="2.0" height="30.6" fill="#8c959f" opacity="0.55"/>
<rect x="222.7" y="307.8" width="2.0" height="36.2" fill="#8c959f" opacity="0.55"/>
<rect x="226.0" y="310.2" width="2.0" height="33.8" fill="#8c959f" opacity="0.55"/>
<rect x="229.3" y="312.4" width="2.0" height="31.6" fill="#8c959f" opacity="0.55"/>
<rect x="232.6" y="311.0" width="2.0" height="33.0" fill="#8c959f" opacity="0.55"/>
<rect x="235.9" y="306.8" width="2.0" height="37.2" fill="#8c959f" opacity="0.55"/>
<rect x="239.2" y="312.5" width="2.0" height="31.5" fill="#8c959f" opacity="0.55"/>
<rect x="242.5" y="313.4" width="2.0" height="30.6" fill="#8c959f" opacity="0.55"/>
<rect x="245.8" y="311.8" width="2.0" height="32.2" fill="#8c959f" opacity="0.55"/>
<rect x="249.1" y="314.6" width="2.0" height="29.4" fill="#8c959f" opacity="0.55"/>
<rect x="252.4" y="313.3" width="2.0" height="30.7" fill="#8c959f" opacity="0.55"/>
<rect x="255.7" y="310.9" width="2.0" height="33.1" fill="#8c959f" opacity="0.55"/>
<rect x="259.0" y="310.3" width="2.0" height="33.7" fill="#8c959f" opacity="0.55"/>
<rect x="262.4" y="310.6" width="2.0" height="33.4" fill="#8c959f" opacity="0.55"/>
<rect x="265.7" y="309.8" width="2.0" height="34.2" fill="#8c959f" opacity="0.55"/>
<rect x="269.0" y="305.6" width="2.0" height="38.4" fill="#8c959f" opacity="0.55"/>
<rect x="272.3" y="306.0" width="2.0" height="38.0" fill="#8c959f" opacity="0.55"/>
<rect x="275.6" y="305.9" width="2.0" height="38.1" fill="#8c959f" opacity="0.55"/>
<rect x="278.9" y="307.7" width="2.0" height="36.3" fill="#8c959f" opacity="0.55"/>
<rect x="282.2" y="298.8" width="2.0" height="45.2" fill="#8c959f" opacity="0.55"/>
<rect x="285.5" y="294.2" width="2.0" height="49.8" fill="#8c959f" opacity="0.55"/>
<rect x="288.8" y="293.3" width="2.0" height="50.7" fill="#8c959f" opacity="0.55"/>
<rect x="292.1" y="294.3" width="2.0" height="49.7" fill="#8c959f" opacity="0.55"/>
<rect x="295.4" y="288.5" width="2.0" height="55.5" fill="#8c959f" opacity="0.55"/>
<rect x="298.7" y="280.0" width="2.0" height="64.0" fill="#8c959f" opacity="0.55"/>
<rect x="302.0" y="279.2" width="2.0" height="64.8" fill="#8c959f" opacity="0.55"/>
<rect x="305.3" y="274.0" width="2.0" height="70.0" fill="#8c959f" opacity="0.55"/>
<rect x="308.6" y="292.4" width="2.0" height="51.6" fill="#8c959f" opacity="0.55"/>
<rect x="311.9" y="290.3" width="2.0" height="53.7" fill="#8c959f" opacity="0.55"/>
<rect x="315.2" y="295.9" width="2.0" height="48.1" fill="#8c959f" opacity="0.55"/>
<rect x="318.5" y="294.7" width="2.0" height="49.3" fill="#8c959f" opacity="0.55"/>
<rect x="321.8" y="297.8" width="2.0" height="46.2" fill="#8c959f" opacity="0.55"/>
<rect x="325.1" y="296.2" width="2.0" height="47.8" fill="#8c959f" opacity="0.55"/>
<rect x="328.4" y="289.2" width="2.0" height="54.8" fill="#8c959f" opacity="0.55"/>
<rect x="331.7" y="286.3" width="2.0" height="57.7" fill="#8c959f" opacity="0.55"/>
<rect x="335.0" y="292.6" width="2.0" height="51.4" fill="#8c959f" opacity="0.55"/>
<rect x="338.3" y="291.3" width="2.0" height="52.7" fill="#8c959f" opacity="0.55"/>
<rect x="341.6" y="286.6" width="2.0" height="57.4" fill="#8c959f" opacity="0.55"/>
<rect x="344.9" y="293.6" width="2.0" height="50.4" fill="#8c959f" opacity="0.55"/>
<rect x="348.2" y="298.1" width="2.0" height="45.9" fill="#8c959f" opacity="0.55"/>
<rect x="351.5" y="298.8" width="2.0" height="45.2" fill="#8c959f" opacity="0.55"/>
<rect x="354.8" y="299.9" width="2.0" height="44.1" fill="#8c959f" opacity="0.55"/>
<rect x="358.1" y="305.4" width="2.0" height="38.6" fill="#8c959f" opacity="0.55"/>
<rect x="361.4" y="305.9" width="2.0" height="38.1" fill="#8c959f" opacity="0.55"/>
<rect x="364.7" y="304.0" width="2.0" height="40.0" fill="#8c959f" opacity="0.55"/>
<rect x="368.0" y="306.6" width="2.0" height="37.4" fill="#8c959f" opacity="0.55"/>
<rect x="371.3" y="308.8" width="2.0" height="35.2" fill="#8c959f" opacity="0.55"/>
<rect x="374.6" y="306.0" width="2.0" height="38.0" fill="#8c959f" opacity="0.55"/>
<rect x="377.9" y="308.8" width="2.0" height="35.2" fill="#8c959f" opacity="0.55"/>
<rect x="381.2" y="304.9" width="2.0" height="39.1" fill="#8c959f" opacity="0.55"/>
<rect x="384.5" y="300.3" width="2.0" height="43.7" fill="#8c959f" opacity="0.55"/>
<rect x="387.8" y="298.9" width="2.0" height="45.1" fill="#8c959f" opacity="0.55"/>
<rect x="391.1" y="299.8" width="2.0" height="44.2" fill="#8c959f" opacity="0.55"/>
<rect x="394.4" y="290.4" width="2.0" height="53.6" fill="#8c959f" opacity="0.55"/>
<rect x="397.7" y="288.4" width="2.0" height="55.6" fill="#8c959f" opacity="0.55"/>
<rect x="401.0" y="302.0" width="2.0" height="42.0" fill="#8c959f" opacity="0.55"/>
<rect x="404.3" y="301.6" width="2.0" height="42.4" fill="#8c959f" opacity="0.55"/>
<rect x="407.6" y="304.9" width="2.0" height="39.1" fill="#8c959f" opacity="0.55"/>
<rect x="410.9" y="297.0" width="2.0" height="47.0" fill="#8c959f" opacity="0.55"/>
<rect x="414.2" y="301.4" width="2.0" height="42.6" fill="#8c959f" opacity="0.55"/>
<rect x="417.5" y="299.5" width="2.0" height="44.5" fill="#8c959f" opacity="0.55"/>
<rect x="420.8" y="300.6" width="2.0" height="43.4" fill="#8c959f" opacity="0.55"/>
<rect x="424.1" y="301.4" width="2.0" height="42.6" fill="#8c959f" opacity="0.55"/>
<rect x="427.4" y="302.7" width="2.0" height="41.3" fill="#8c959f" opacity="0.55"/>
<rect x="430.7" y="304.8" width="2.0" height="39.2" fill="#8c959f" opacity="0.55"/>
<rect x="434.0" y="307.7" width="2.0" height="36.3" fill="#8c959f" opacity="0.55"/>
<rect x="437.3" y="306.5" width="2.0" height="37.5" fill="#8c959f" opacity="0.55"/>
<rect x="440.6" y="303.4" width="2.0" height="40.6" fill="#8c959f" opacity="0.55"/>
<rect x="443.9" y="300.8" width="2.0" height="43.2" fill="#8c959f" opacity="0.55"/>
<rect x="447.2" y="307.0" width="2.0" height="37.0" fill="#8c959f" opacity="0.55"/>
<rect x="450.5" y="305.3" width="2.0" height="38.7" fill="#8c959f" opacity="0.55"/>
<rect x="453.8" y="309.5" width="2.0" height="34.5" fill="#8c959f" opacity="0.55"/>
<rect x="457.1" y="311.1" width="2.0" height="32.9" fill="#8c959f" opacity="0.55"/>
<rect x="460.4" y="310.0" width="2.0" height="34.0" fill="#8c959f" opacity="0.55"/>
<rect x="463.7" y="308.6" width="2.0" height="35.4" fill="#8c959f" opacity="0.55"/>
<rect x="467.0" y="308.3" width="2.0" height="35.7" fill="#8c959f" opacity="0.55"/>
<rect x="470.3" y="311.3" width="2.0" height="32.7" fill="#8c959f" opacity="0.55"/>
<rect x="473.6" y="314.6" width="2.0" height="29.4" fill="#8c959f" opacity="0.55"/>
<rect x="476.9" y="315.3" width="2.0" height="28.7" fill="#8c959f" opacity="0.55"/>
<rect x="480.2" y="300.8" width="2.0" height="43.2" fill="#8c959f" opacity="0.55"/>
<rect x="483.5" y="306.1" width="2.0" height="37.9" fill="#8c959f" opacity="0.55"/>
<rect x="486.8" y="302.7" width="2.0" height="41.3" fill="#8c959f" opacity="0.55"/>
<rect x="490.1" y="305.8" width="2.0" height="38.2" fill="#8c959f" opacity="0.55"/>
<rect x="493.4" y="301.7" width="2.0" height="42.3" fill="#8c959f" opacity="0.55"/>
<rect x="496.7" y="301.1" width="2.0" height="42.9" fill="#8c959f" opacity="0.55"/>
<rect x="500.0" y="302.4" width="2.0" height="41.6" fill="#8c959f" opacity="0.55"/>
<rect x="503.3" y="300.9" width="2.0" height="43.1" fill="#8c959f" opacity="0.55"/>
<rect x="506.6" y="298.2" width="2.0" height="45.8" fill="#8c959f" opacity="0.55"/>
<rect x="509.9" y="301.2" width="2.0" height="42.8" fill="#8c959f" opacity="0.55"/>
<rect x="513.2" y="298.5" width="2.0" height="45.5" fill="#8c959f" opacity="0.55"/>
<rect x="516.5" y="294.2" width="2.0" height="49.8" fill="#8c959f" opacity="0.55"/>
<rect x="519.8" y="297.1" width="2.0" height="46.9" fill="#8c959f" opacity="0.55"/>
<rect x="523.1" y="298.0" width="2.0" height="46.0" fill="#8c959f" opacity="0.55"/>
<rect x="526.4" y="299.0" width="2.0" height="45.0" fill="#8c959f" opacity="0.55"/>
<rect x="529.7" y="298.0" width="2.0" height="46.0" fill="#8c959f" opacity="0.55"/>
<rect x="533.0" y="295.3" width="2.0" height="48.7" fill="#8c959f" opacity="0.55"/>
<rect x="536.4" y="286.7" width="2.0" height="57.3" fill="#8c959f" opacity="0.55"/>
<rect x="539.7" y="288.2" width="2.0" height="55.8" fill="#8c959f" opacity="0.55"/>
<rect x="543.0" y="289.9" width="2.0" height="54.1" fill="#8c959f" opacity="0.55"/>
<rect x="546.3" y="281.2" width="2.0" height="62.8" fill="#8c959f" opacity="0.55"/>
<rect x="549.6" y="286.4" width="2.0" height="57.6" fill="#8c959f" opacity="0.55"/>
<rect x="552.9" y="286.5" width="2.0" height="57.5" fill="#8c959f" opacity="0.55"/>
<rect x="556.2" y="284.3" width="2.0" height="59.7" fill="#8c959f" opacity="0.55"/>
<rect x="559.5" y="284.6" width="2.0" height="59.4" fill="#8c959f" opacity="0.55"/>
<rect x="562.8" y="292.6" width="2.0" height="51.4" fill="#8c959f" opacity="0.55"/>
<rect x="566.1" y="292.7" width="2.0" height="51.3" fill="#8c959f" opacity="0.55"/>
<rect x="569.4" y="291.5" width="2.0" height="52.5" fill="#8c959f" opacity="0.55"/>
<rect x="572.7" y="282.2" width="2.0" height="61.8" fill="#8c959f" opacity="0.55"/>
<rect x="576.0" y="292.4" width="2.0" height="51.6" fill="#8c959f" opacity="0.55"/>
<rect x="579.3" y="287.1" width="2.0" height="56.9" fill="#8c959f" opacity="0.55"/>
<rect x="582.6" y="286.4" width="2.0" height="57.6" fill="#8c959f" opacity="0.55"/>
<rect x="585.9" y="286.5" width="2.0" height="57.5" fill="#8c959f" opacity="0.55"/>
<rect x="589.2" y="291.3" width="2.0" height="52.7" fill="#8c959f" opacity="0.55"/>
<rect x="592.5" y="285.1" width="2.0" height="58.9" fill="#8c959f" opacity="0.55"/>
<rect x="595.8" y="292.9" width="2.0" height="51.1" fill="#8c959f" opacity="0.55"/>
<rect x="599.1" y="294.4" width="2.0" height="49.6" fill="#8c959f" opacity="0.55"/>
<rect x="602.4" y="288.4" width="2.0" height="55.6" fill="#8c959f" opacity="0.55"/>
<rect x="605.7" y="295.0" width="2.0" height="49.0" fill="#8c959f" opacity="0.55"/>
<rect x="609.0" y="289.5" width="2.0" height="54.5" fill="#8c959f" opacity="0.55"/>
<rect x="612.3" y="294.4" width="2.0" height="49.6" fill="#8c959f" opacity="0.55"/>
<rect x="615.6" y="297.1" width="2.0" height="46.9" fill="#8c959f" opacity="0.55"/>
<rect x="618.9" y="297.5" width="2.0" height="46.5" fill="#8c959f" opacity="0.55"/>
<rect x="622.2" y="298.7" width="2.0" height="45.3" fill="#8c959f" opacity="0.55"/>
<rect x="625.5" y="286.9" width="2.0" height="57.1" fill="#8c959f" opacity="0.55"/>
<rect x="628.8" y="290.2" width="2.0" height="53.8" fill="#8c959f" opacity="0.55"/>
<rect x="632.1" y="289.6" width="2.0" height="54.4" fill="#8c959f" opacity="0.55"/>
<rect x="635.4" y="289.1" width="2.0" height="54.9" fill="#8c959f" opacity="0.55"/>
<rect x="638.7" y="285.2" width="2.0" height="58.8" fill="#8c959f" opacity="0.55"/>
<rect x="642.0" y="277.6" width="2.0" height="66.4" fill="#8c959f" opacity="0.55"/>
<rect x="645.3" y="282.9" width="2.0" height="61.1" fill="#8c959f" opacity="0.55"/>
<rect x="648.6" y="285.7" width="2.0" height="58.3" fill="#8c959f" opacity="0.55"/>
<rect x="651.9" y="280.2" width="2.0" height="63.8" fill="#8c959f" opacity="0.55"/>
<rect x="655.2" y="280.9" width="2.0" height="63.1" fill="#8c959f" opacity="0.55"/>
<rect x="658.5" y="281.5" width="2.0" height="62.5" fill="#8c959f" opacity="0.55"/>
<rect x="661.8" y="285.9" width="2.0" height="58.1" fill="#8c959f" opacity="0.55"/>
<rect x="665.1" y="279.0" width="2.0" height="65.0" fill="#8c959f" opacity="0.55"/>
<rect x="668.4" y="282.7" width="2.0" height="61.3" fill="#8c959f" opacity="0.55"/>
<rect x="671.7" y="287.5" width="2.0" height="56.5" fill="#8c959f" opacity="0.55"/>
<rect x="675.0" y="289.1" width="2.0" height="54.9" fill="#8c959f" opacity="0.55"/>
<rect x="678.3" y="298.2" width="2.0" height="45.8" fill="#8c959f" opacity="0.55"/>
<rect x="681.6" y="298.5" width="2.0" height="45.5" fill="#8c959f" opacity="0.55"/>
<rect x="684.9" y="292.3" width="2.0" height="51.7" fill="#8c959f" opacity="0.55"/>
<rect x="688.2" y="283.8" width="2.0" height="60.2" fill="#8c959f" opacity="0.55"/>
<rect x="691.5" y="294.0" width="2.0" height="50.0" fill="#8c959f" opacity="0.55"/>
<rect x="694.8" y="296.0" width="2.0" height="48.0" fill="#8c959f" opacity="0.55"/>
<rect x="698.1" y="298.3" width="2.0" height="45.7" fill="#8c959f" opacity="0.55"/>
<rect x="701.4" y="301.3" width="2.0" height="42.7" fill="#8c959f" opacity="0.55"/>
<rect x="704.7" y="296.8" width="2.0" height="47.2" fill="#8c959f" opacity="0.55"/>
<rect x="708.0" y="296.0" width="2.0" height="48.0" fill="#8c959f" opacity="0.55"/>
<rect x="711.3" y="291.5" width="2.0" height="52.5" fill="#8c959f" opacity="0.55"/>
<rect x="714.6" y="296.9" width="2.0" height="47.1" fill="#8c959f" opacity="0.55"/>
<rect x="717.9" y="305.0" width="2.0" height="39.0" fill="#8c959f" opacity="0.55"/>
<rect x="721.2" y="309.7" width="2.0" height="34.3" fill="#8c959f" opacity="0.55"/>
<rect x="724.5" y="307.1" width="2.0" height="36.9" fill="#8c959f" opacity="0.55"/>
<rect x="727.8" y="308.0" width="2.0" height="36.0" fill="#8c959f" opacity="0.55"/>
<rect x="731.1" y="303.2" width="2.0" height="40.8" fill="#8c959f" opacity="0.55"/>
<rect x="734.4" y="302.4" width="2.0" height="41.6" fill="#8c959f" opacity="0.55"/>
<rect x="737.7" y="298.9" width="2.0" height="45.1" fill="#8c959f" opacity="0.55"/>
<rect x="741.0" y="308.5" width="2.0" height="35.5" fill="#8c959f" opacity="0.55"/>
<rect x="744.3" y="304.7" width="2.0" height="39.3" fill="#8c959f" opacity="0.55"/>
<rect x="747.6" y="296.8" width="2.0" height="47.2" fill="#8c959f" opacity="0.55"/>
<rect x="750.9" y="299.1" width="2.0" height="44.9" fill="#8c959f" opacity="0.55"/>
<rect x="754.2" y="296.7" width="2.0" height="47.3" fill="#8c959f" opacity="0.55"/>
<rect x="757.5" y="299.2" width="2.0" height="44.8" fill="#8c959f" opacity="0.55"/>
<rect x="760.8" y="302.8" width="2.0" height="41.2" fill="#8c959f" opacity="0.55"/>
<rect x="764.1" y="305.8" width="2.0" height="38.2" fill="#8c959f" opacity="0.55"/>
<rect x="767.4" y="298.7" width="2.0" height="45.3" fill="#8c959f" opacity="0.55"/>
<rect x="770.7" y="305.9" width="2.0" height="38.1" fill="#8c959f" opacity="0.55"/>
<rect x="774.0" y="301.6" width="2.0" height="42.4" fill="#8c959f" opacity="0.55"/>
<rect x="777.3" y="301.4" width="2.0" height="42.6" fill="#8c959f" opacity="0.55"/>
<rect x="780.6" y="299.4" width="2.0" height="44.6" fill="#8c959f" opacity="0.55"/>
<rect x="783.9" y="307.1" width="2.0" height="36.9" fill="#8c959f" opacity="0.55"/>
<rect x="787.2" y="310.6" width="2.0" height="33.4" fill="#8c959f" opacity="0.55"/>
<rect x="790.5" y="308.3" width="2.0" height="35.7" fill="#8c959f" opacity="0.55"/>
<rect x="793.8" y="311.5" width="2.0" height="32.5" fill="#8c959f" opacity="0.55"/>
<rect x="797.1" y="311.9" width="2.0" height="32.1" fill="#8c959f" opacity="0.55"/>
<rect x="800.4" y="306.2" width="2.0" height="37.8" fill="#8c959f" opacity="0.55"/>
<rect x="803.7" y="306.7" width="2.0" height="37.3" fill="#8c959f" opacity="0.55"/>
<rect x="807.0" y="306.2" width="2.0" height="37.8" fill="#8c959f" opacity="0.55"/>
<rect x="810.4" y="307.9" width="2.0" height="36.1" fill="#8c959f" opacity="0.55"/>
<rect x="813.7" y="312.2" width="2.0" height="31.8" fill="#8c959f" opacity="0.55"/>
<rect x="817.0" y="312.8" width="2.0" height="31.2" fill="#8c959f" opacity="0.55"/>
<rect x="820.3" y="307.9" width="2.0" height="36.1" fill="#8c959f" opacity="0.55"/>
<rect x="823.6" y="309.4" width="2.0" height="34.6" fill="#8c959f" opacity="0.55"/>
<rect x="826.9" y="309.2" width="2.0" height="34.8" fill="#8c959f" opacity="0.55"/>
<rect x="830.2" y="311.0" width="2.0" height="33.0" fill="#8c959f" opacity="0.55"/>
<rect x="833.5" y="314.7" width="2.0" height="29.3" fill="#8c959f" opacity="0.55"/>
<rect x="836.8" y="309.0" width="2.0" height="35.0" fill="#8c959f" opacity="0.55"/>
<rect x="840.1" y="315.1" width="2.0" height="28.9" fill="#8c959f" opacity="0.55"/>
<rect x="843.4" y="315.4" width="2.0" height="28.6" fill="#8c959f" opacity="0.55"/>
<rect x="846.7" y="311.3" width="2.0" height="32.7" fill="#8c959f" opacity="0.55"/>
<rect x="850.0" y="311.6" width="2.0" height="32.4" fill="#8c959f" opacity="0.55"/>
<rect x="853.3" y="307.1" width="2.0" height="36.9" fill="#8c959f" opacity="0.55"/>
<rect x="856.6" y="307.9" width="2.0" height="36.1" fill="#8c959f" opacity="0.55"/>
<rect x="859.9" y="306.1" width="2.0" height="37.9" fill="#8c959f" opacity="0.55"/>
<rect x="863.2" y="312.7" width="2.0" height="31.3" fill="#8c959f" opacity="0.55"/>
<rect x="866.5" y="314.6" width="2.0" height="29.4" fill="#8c959f" opacity="0.55"/>
<rect x="869.8" y="313.8" width="2.0" height="30.2" fill="#8c959f" opacity="0.55"/>
<rect x="873.1" y="319.0" width="2.0" height="25.0" fill="#8c959f" opacity="0.55"/>
<rect x="876.4" y="318.5" width="2.0" height="25.5" fill="#8c959f" opacity="0.55"/>
<rect x="879.7" y="314.1" width="2.0" height="29.9" fill="#8c959f" opacity="0.55"/>
<rect x="883.0" y="310.2" width="2.0" height="33.8" fill="#8c959f" opacity="0.55"/>
<text x="884" y="284" font-size="11" fill="#57606a" text-anchor="end">峰值 39415 亿</text>
<text x="62.0" y="264" font-size="11" fill="#57606a" text-anchor="start">2025-09-22</text>
<text x="474.7" y="264" font-size="11" fill="#57606a" text-anchor="middle">2026-04-03</text>
<text x="884.0" y="264" font-size="11" fill="#57606a" text-anchor="end">2026-10-09</text>
<text x="884" y="13" font-size="12" fill="#57606a" text-anchor="end">3813.79　区间 -0.4%</text>
</svg>