<?xml version="1.0" encoding="UTF-8"?>
<svg xmlns="http://www.w3.org/2000/svg" width="900" height="380" viewBox="0 0 900 380" font-family="-apple-system,Segoe UI,Helvetica,Arial,sans-serif">
<text x="62" y="13" font-size="12" fill="#57606a">上证指数　2025-09-18 ~ 2026-09-30　共 250 个交易日</text>
<line x1="62" y1="18.0" x2="884" y2="18.0" stroke="#d0d7de" stroke-width="1" stroke-dasharray="3 3"/>
<text x="56" y="22.0" font-size="11" fill="#57606a" text-anchor="end">4281</text>
<line x1="62" y1="75.5" x2="884" y2="75.5" stroke="#d0d7de" stroke-width="1" stroke-dasharray="3 3"/>
<text x="56" y="79.5" font-size="11" fill="#57606a" text-anchor="end">4142</text>
<line x1="62" y1="133.0" x2="884" y2="133.0" stroke="#d0d7de" stroke-width="1" stroke-dasharray="3 3"/>
<text x="56" y="137.0" font-size="11" fill="#57606a" text-anchor="end">4003</text>
<line x1="62" y1="190.5" x2="884" y2="190.5" stroke="#d0d7de" stroke-width="1" stroke-dasharray="3 3"/>
<text x="56" y="194.5" font-size="11" fill="#57606a" text-anchor="end">3865</text>
<line x1="62" y1="248.0" x2="884" y2="248.0" stroke="#d0d7de" stroke-width="1" stroke-dasharray="3 3"/>
<text x="56" y="252.0" font-size="11" fill="#57606a" text-anchor="end">3726</text>
<polyline points="62.0,204.2 65.3,209.0 68.6,205.4 71.9,208.2 75.2,195.0 78.5,195.2 81.8,205.6 85.1,191.4 88.4,183.0 91.7,161.8 95.0,177.1 98.3,180.2 101.6,190.2 104.9,170.8 108.2,169.1 111.5,200.8 114.8,190.8 118.1,169.1 121.4,170.1 124.7,166.5 128.0,155.0 131.3,135.7 134.6,139.3 137.9,127.6 141.2,139.8 144.5,153.1 147.8,144.1 151.1,150.9 154.4,147.1 157.7,131.2 161.0,135.4 164.3,126.7 167.6,133.2 170.9,134.3 174.2,122.2 177.5,138.3 180.8,146.0 184.1,159.3 187.4,156.5 190.7,163.0 194.0,202.8 197.3,202.0 200.7,188.3 204.0,190.7 207.3,186.1 210.6,180.6 213.9,170.0 217.2,176.8 220.5,185.0 223.8,185.9 227.1,174.7 230.4,165.9 233.7,171.9 237.0,175.6 240.3,186.9 243.6,180.3 246.9,189.1 250.2,207.0 253.5,188.2 256.8,185.6 260.1,179.8 263.4,168.6 266.7,167.6 270.0,158.9 273.3,151.1 276.6,149.4 279.9,148.8 283.2,148.8 286.5,147.3 289.8,124.7 293.1,99.7 296.4,98.8 299.7,100.0 303.0,84.5 306.3,65.9 309.6,76.9 312.9,82.1 316.2,87.7 319.5,92.2 322.8,87.1 326.1,87.3 329.4,85.9 332.7,83.6 336.0,78.0 339.3,79.4 342.6,76.4 345.9,71.7 349.2,68.9 352.5,85.5 355.8,127.9 359.1,106.3 362.4,92.0 365.7,102.9 369.0,107.2 372.3,83.4 375.6,81.2 378.9,79.7 382.2,78.8 385.5,100.4 388.8,85.7 392.1,73.4 395.4,73.6 398.7,66.9 402.0,58.7 405.3,83.5 408.6,100.2 411.9,89.4 415.2,82.9 418.5,94.4 421.8,83.4 425.1,79.1 428.4,80.9 431.7,94.8 435.0,99.3 438.3,113.7 441.6,108.3 444.9,131.7 448.2,152.2 451.5,211.8 454.8,183.6 458.1,162.6 461.4,180.4 464.7,170.2 468.0,166.2 471.3,179.2 474.7,155.7 478.0,167.8 481.3,184.1 484.6,179.9 487.9,136.5 491.2,148.4 494.5,140.1 497.8,139.1 501.1,123.4 504.4,123.1 507.7,111.4 511.0,113.1 514.3,100.4 517.6,99.1 520.9,90.4 524.2,95.7 527.5,101.3 530.8,98.6 534.1,101.8 537.4,89.8 540.7,87.9 544.0,68.0 547.3,59.8 550.6,59.8 553.9,41.1 557.2,45.5 560.5,33.9 563.8,60.7 567.1,78.3 570.4,79.9 573.7,64.1 577.0,67.2 580.3,102.4 583.6,87.6 586.9,71.2 590.2,74.1 593.5,95.5 596.8,93.5 600.1,106.0 603.4,110.5 606.7,103.3 610.0,99.6 613.3,110.4 616.6,122.9 619.9,151.2 623.2,130.2 626.5,137.2 629.8,139.8 633.1,121.3 636.4,94.4 639.7,96.3 643.0,89.6 646.3,96.9 649.6,66.8 652.9,90.4 656.2,88.5 659.5,84.5 662.8,123.1 666.1,103.8 669.4,95.3 672.7,87.8 676.0,122.4 679.3,116.3 682.6,117.3 685.9,138.4 689.2,146.5 692.5,119.2 695.8,136.0 699.1,170.1 702.4,148.0 705.7,152.8 709.0,183.1 712.3,232.1 715.6,218.8 718.9,190.6 722.2,189.5 725.5,185.5 728.8,211.4 732.1,193.1 735.4,211.8 738.7,205.5 742.0,215.3 745.3,203.9 748.7,213.3 752.0,208.0 755.3,184.8 758.6,175.7 761.9,159.2 765.2,148.2 768.5,161.7 771.8,156.5 775.1,164.7 778.4,164.6 781.7,141.6 785.0,138.4 788.3,178.1 791.6,174.3 794.9,173.7 798.2,183.3 801.5,180.2 804.8,170.6 808.1,152.4 811.4,154.2 814.7,140.1 818.0,142.7 821.3,158.7 824.6,158.4 827.9,163.4 831.2,162.3 834.5,159.0 837.8,154.5 841.1,161.6 844.4,180.8 847.7,181.9 851.0,190.6 854.3,179.3 857.6,185.9 860.9,170.9 864.2,155.2 867.5,154.2 870.8,160.7 874.1,180.7 877.4,207.5 880.7,204.7 884.0,199.8" fill="none" stroke="#c9211e" stroke-width="1.6" stroke-linejoin="round"/>
<text x="56" y="284" font-size="11" fill="#57606a" text-anchor="end">成交额</text>
<rect x="61.0" y="288.3" width="2.0" height="55.7" fill="#8c959f" opacity="0.55"/>
<rect x="64.3" y="302.7" width="2.0" height="41.3" fill="#8c959f" opacity="0.55"/>
<rect x="67.6" y="306.3" width="2.0" height="37.7" fill="#8c959f" opacity="0.55"/>
<rect x="70.9" y="299.7" width="2.0" height="44.3" fill="#8c959f" opacity="0.55"/>
<rect x="74.2" y="302.7" width="2.0" height="41.3" fill="#8c959f" opacity="0.55"/>
<rect x="77.5" y="301.9" width="2.0" height="42.1" fill="#8c959f" opacity="0.55"/>
<rect x="80.8" y="305.9" width="2.0" height="38.1" fill="#8c959f" opacity="0.55"/>
<rect x="84.1" y="305.6" width="2.0" height="38.4" fill="#8c959f" opacity="0.55"/>
<rect x="87.4" y="305.3" width="2.0" height="38.7" fill="#8c959f" opacity="0.55"/>
<rect x="90.7" y="296.9" width="2.0" height="47.1" fill="#8c959f" opacity="0.55"/>
<rect x="94.0" y="299.3" width="2.0" height="44.7" fill="#8c959f" opacity="0.55"/>
<rect x="97.3" y="302.2" width="2.0" height="41.8" fill="#8c959f" opacity="0.55"/>
<rect x="100.6" y="298.2" width="2.0" height="45.8" fill="#8c959f" opacity="0.55"/>
<rect x="103.9" y="307.2" width="2.0" height="36.8" fill="#8c959f" opacity="0.55"/>
<rect x="107.2" y="309.7" width="2.0" height="34.3" fill="#8c959f" opacity="0.55"/>
<rect x="110.5" y="309.6" width="2.0" height="34.4" fill="#8c959f" opacity="0.55"/>
<rect x="113.8" y="313.1" width="2.0" height="30.9" fill="#8c959f" opacity="0.55"/>
<rect x="117.1" y="310.7" width="2.0" height="33.3" fill="#8c959f" opacity="0.55"/>
<rect x="120.4" y="314.4" width="2.0" height="29.6" fill="#8c959f" opacity="0.55"/>
<rect x="123.7" y="314.8" width="2.0" height="29.2" fill="#8c959f" opacity="0.55"/>
<rect x="127.0" y="308.9" width="2.0" height="35.1" fill="#8c959f" opacity="0.55"/>
<rect x="130.3" y="302.4" width="2.0" height="41.6" fill="#8c959f" opacity="0.55"/>
<rect x="133.6" y="305.9" width="2.0" height="38.1" fill="#8c959f" opacity="0.55"/>
<rect x="136.9" y="303.9" width="2.0" height="40.1" fill="#8c959f" opacity="0.55"/>
<rect x="140.2" y="301.0" width="2.0" height="43.0" fill="#8c959f" opacity="0.55"/>
<rect x="143.5" y="302.8" width="2.0" height="41.2" fill="#8c959f" opacity="0.55"/>
<rect x="146.8" y="306.6" width="2.0" height="37.4" fill="#8c959f" opacity="0.55"/>
<rect x="150.1" y="310.0" width="2.0" height="34.0" fill="#8c959f" opacity="0.55"/>
<rect x="153.4" y="310.7" width="2.0" height="33.3" fill="#8c959f" opacity="0.55"/>
<rect x="156.7" y="307.5" width="2.0" height="36.5" fill="#8c959f" opacity="0.55"/>
<rect x="160.0" y="308.5" width="2.0" height="35.5" fill="#8c959f" opacity="0.55"/>
<rect x="163.3" y="305.4" width="2.0" height="38.6" fill="#8c959f" opacity="0.55"/>
<rect x="166.6" y="308.6" width="2.0" height="35.4" fill="#8c959f" opacity="0.55"/>
<rect x="169.9" y="309.5" width="2.0" height="34.5" fill="#8c959f" opacity="0.55"/>
<rect x="173.2" y="307.7" width="2.0" height="36.3" fill="#8c959f" opacity="0.55"/>
<rect x="176.5" y="309.2" width="2.0" height="34.8" fill="#8c959f" opacity="0.55"/>
<rect x="179.8" y="310.1" width="2.0" height="33.9" fill="#8c959f" opacity="0.55"/>
<rect x="183.1" y="309.8" width="2.0" height="34.2" fill="#8c959f" opacity="0.55"/>
<rect x="186.4" y="313.3" width="2.0" height="30.7" fill="#8c959f" opacity="0.55"/>
<rect x="189.7" y="313.7" width="2.0" height="30.3" fill="#8c959f" opacity="0.55"/>
<rect x="193.0" y="309.1" width="2.0" height="34.9" fill="#8c959f" opacity="0.55"/>
<rect x="196.3" y="313.3" width="2.0" height="30.7" fill="#8c959f" opacity="0.55"/>
<rect x="199.6" y="311.8" width="2.0" height="32.2" fill="#8c959f" opacity="0.55"/>
<rect x="202.9" y="312.3" width="2.0" height="31.7" fill="#8c959f" opacity="0.55"/>
<rect x="206.2" y="313.6" width="2.0" height="30.4" fill="#8c959f" opacity="0.55"/>
<rect x="209.5" y="315.8" width="2.0" height="28.2" fill="#8c959f" opacity="0.55"/>
<rect x="212.8" y="310.7" width="2.0" height="33.3" fill="#8c959f" opacity="0.55"/>
<rect x="216.1" y="315.7" width="2.0" height="28.3" fill="#8c959f" opacity="0.55"/>
<rect x="219.4" y="314.3" width="2.0" height="29.7" fill="#8c959f" opacity="0.55"/>
<rect x="222.7" y="316.5" width="2.0" height="27.5" fill="#8c959f" opacity="0.55"/>
<rect x="226.0" y="313.4" width="2.0" height="30.6" fill="#8c959f" opacity="0.55"/>
<rect x="229.3" y="307.8" width="2.0" height="36.2" fill="#8c959f" opacity="0.55"/>
<rect x="232.6" y="310.2" width="2.0" height="33.8" fill="#8c959f" opacity="0.55"/>
<rect x="235.9" y="312.4" width="2.0" height="31.6" fill="#8c959f" opacity="0.55"/>
<rect x="239.2" y="311.0" width="2.0" height="33.0" fill="#8c959f" opacity="0.55"/>
<rect x="242.5" y="306.8" width="2.0" height="37.2" fill="#8c959f" opacity="0.55"/>
<rect x="245.8" y="312.5" width="2.0" height="31.5" fill="#8c959f" opacity="0.55"/>
<rect x="249.1" y="313.4" width="2.0" height="30.6" fill="#8c959f" opacity="0.55"/>
<rect x="252.4" y="311.8" width="2.0" height="32.2" fill="#8c959f" opacity="0.55"/>
<rect x="255.7" y="314.6" width="2.0" height="29.4" fill="#8c959f" opacity="0.55"/>
<rect x="259.0" y="313.3" width="2.0" height="30.7" fill="#8c959f" opacity="0.55"/>
<rect x="262.4" y="310.9" width="2.0" height="33.1" fill="#8c959f" opacity="0.55"/>
<rect x="265.7" y="310.3" width="2.0" height="33.7" fill="#8c959f" opacity="0.55"/>
<rect x="269.0" y="310.6" width="2.0" height="33.4" fill="#8c959f" opacity="0.55"/>
<rect x="272.3" y="309.8" width="2.0" height="34.2" fill="#8c959f" opacity="0.55"/>
<rect x="275.6" y="305.6" width="2.0" height="38.4" fill="#8c959f" opacity="0.55"/>
<rect x="278.9" y="306.0" width="2.0" height="38.0" fill="#8c959f" opacity="0.55"/>
<rect x="282.2" y="305.9" width="2.0" height="38.1" fill="#8c959f" opacity="0.55"/>
<rect x="285.5" y="307.7" width="2.0" height="36.3" fill="#8c959f" opacity="0.55"/>
<rect x="288.8" y="298.8" width="2.0" height="45.2" fill="#8c959f" opacity="0.55"/>
<rect x="292.1" y="294.2" width="2.0" height="49.8" fill="#8c959f" opacity="0.55"/>
<rect x="295.4" y="293.3" width="2.0" height="50.7" fill="#8c959f" opacity="0.55"/>
<rect x="298.7" y="294.3" width="2.0" height="49.7" fill="#8c959f" opacity="0.55"/>
<rect x="302.0" y="288.5" width="2.0" height="55.5" fill="#8c959f" opacity="0.55"/>
<rect x="305.3" y="280.0" width="2.0" height="64.0" fill="#8c959f" opacity="0.55"/>
<rect x="308.6" y="279.2" width="2.0" height="64.8" fill="#8c959f" opacity="0.55"/>
<rect x="311.9" y="274.0" width="2.0" height="70.0" fill="#8c959f" opacity="0.55"/>
<rect x="315.2" y="292.4" width="2.0" height="51.6" fill="#8c959f" opacity="0.55"/>
<rect x="318.5" y="290.3" width="2.0" height="53.7" fill="#8c959f" opacity="0.55"/>
<rect x="321.8" y="295.9" width="2.0" height="48.1" fill="#8c959f" opacity="0.55"/>
<rect x="325.1" y="294.7" width="2.0" height="49.3" fill="#8c959f" opacity="0.55"/>
<rect x="328.4" y="297.8" width="2.0" height="46.2" fill="#8c959f" opacity="0.55"/>
<rect x="331.7" y="296.2" width="2.0" height="47.8" fill="#8c959f" opacity="0.55"/>
<rect x="335.0" y="289.2" width="2.0" height="54.8" fill="#8c959f" opacity="0.55"/>
<rect x="338.3" y="286.3" width="2.0" height="57.7" fill="#8c959f" opacity="0.55"/>
<rect x="341.6" y="292.6" width="2.0" height="51.4" fill="#8c959f" opacity="0.55"/>
<rect x="344.9" y="291.3" width="2.0" height="52.7" fill="#8c959f" opacity="0.55"/>
<rect x="348.2" y="286.6" width="2.0" height="57.4" fill="#8c959f" opacity="0.55"/>
<rect x="351.5" y="293.6" width="2.0" height="50.4" fill="#8c959f" opacity="0.55"/>
<rect x="354.8" y="298.1" width="2.0" height="45.9" fill="#8c959f" opacity="0.55"/>
<rect x="358.1" y="298.8" width="2.0" height="45.2" fill="#8c959f" opacity="0.55"/>
<rect x="361.4" y="299.9" width="2.0" height="44.1" fill="#8c959f" opacity="0.55"/>
<rect x="364.7" y="305.4" width="2.0" height="38.6" fill="#8c959f" opacity="0.55"/>
<rect x="368.0" y="305.9" width="2.0" height="38.1" fill="#8c959f" opacity="0.55"/>
<rect x="371.3" y="304.0" width="2.0" height="40.0" fill="#8c959f" opacity="0.55"/>
<rect x="374.6" y="306.6" width="2.0" height="37.4" fill="#8c959f" opacity="0.55"/>
<rect x="377.9" y="308.8" width="2.0" height="35.2" fill="#8c959f" opacity="0.55"/>
<rect x="381.2" y="306.0" width="2.0" height="38.0" fill="#8c959f" opacity="0.55"/>
<rect x="384.5" y="308.8" width="2.0" height="35.2" fill="#8c959f" opacity="0.55"/>
<rect x="387.8" y="304.9" width="2.0" height="39.1" fill="#8c959f" opacity="0.55"/>
<rect x="391.1" y="300.3" width="2.0" height="43.7" fill="#8c959f" opacity="0.55"/>
<rect x="394.4" y="298.9" width="2.0" height="45.1" fill="#8c959f" opacity="0.55"/>
<rect x="397.7" y="299.8" width="2.0" height="44.2" fill="#8c959f" opacity="0.55"/>
<rect x="401.0" y="290.4" width="2.0" height="53.6" fill="#8c959f" opacity="0.55"/>
<rect x="404.3" y="288.4" width="2.0" height="55.6" fill="#8c959f" opacity="0.55"/>
<rect x="407.6" y="302.0" width="2.0" height="42.0" fill="#8c959f" opacity="0.55"/>
<rect x="410.9" y="301.6" width="2.0" height="42.4" fill="#8c959f" opacity="0.55"/>
<rect x="414.2" y="304.9" width="2.0" height="39.1" fill="#8c959f" opacity="0.55"/>
<rect x="417.5" y="297.0" width="2.0" height="47.0" fill="#8c959f" opacity="0.55"/>
<rect x="420.8" y="301.4" width="2.0" height="42.6" fill="#8c959f" opacity="0.55"/>
<rect x="424.1" y="299.5" width="2.0" height="44.5" fill="#8c959f" opacity="0.55"/>
<rect x="427.4" y="300.6" width="2.0" height="43.4" fill="#8c959f" opacity="0.55"/>
<rect x="430.7" y="301.4" width="2.0" height="42.6" fill="#8c959f" opacity="0.55"/>
<rect x="434.0" y="302.7" width="2.0" height="41.3" fill="#8c959f" opacity="0.55"/>
<rect x="437.3" y="304.8" width="2.0" height="39.2" fill="#8c959f" opacity="0.55"/>
<rect x="440.6" y="307.7" width="2.0" height="36.3" fill="#8c959f" opacity="0.55"/>
<rect x="443.9" y="306.5" width="2.0" height="37.5" fill="#8c959f" opacity="0.55"/>
<rect x="447.2" y="303.4" width="2.0" height="40.6" fill="#8c959f" opacity="0.55"/>
<rect x="450.5" y="300.8" width="2.0" height="43.2" fill="#8c959f" opacity="0.55"/>
<rect x="453.8" y="307.0" width="2.0" height="37.0" fill="#8c959f" opacity="0.55"/>
<rect x="457.1" y="305.3" width="2.0" height="38.7" fill="#8c959f" opacity="0.55"/>
<rect x="460.4" y="309.5" width="2.0" height="34.5" fill="#8c959f" opacity="0.55"/>
<rect x="463.7" y="311.1" width="2.0" height="32.9" fill="#8c959f" opacity="0.55"/>
<rect x="467.0" y="310.0" width="2.0" height="34.0" fill="#8c959f" opacity="0.55"/>
<rect x="470.3" y="308.6" width="2.0" height="35.4" fill="#8c959f" opacity="0.55"/>
<rect x="473.6" y="308.3" width="2.0" height="35.7" fill="#8c959f" opacity="0.55"/>
<rect x="476.9" y="311.3" width="2.0" height="32.7" fill="#8c959f" opacity="0.55"/>
<rect x="480.2" y="314.6" width="2.0" height="29.4" fill="#8c959f" opacity="0.55"/>
<rect x="483.5" y="315.3" width="2.0" height="28.7" fill="#8c959f" opacity="0.55"/>
<rect x="486.8" y="300.8" width="2.0" height="43.2" fill="#8c959f" opacity="0.55"/>
<rect x="490.1" y="306.1" width="2.0" height="37.9" fill="#8c959f" opacity="0.55"/>
<rect x="493.4" y="302.7" width="2.0" height="41.3" fill="#8c959f" opacity="0.55"/>
<rect x="496.7" y="305.8" width="2.0" height="38.2" fill="#8c959f" opacity="0.55"/>
<rect x="500.0" y="301.7" width="2.0" height="42.3" fill="#8c959f" opacity="0.55"/>
<rect x="503.3" y="301.1" width="2.0" height="42.9" fill="#8c959f" opacity="0.55"/>
<rect x="506.6" y="302.4" width="2.0" height="41.6" fill="#8c959f" opacity="0.55"/>
<rect x="509.9" y="300.9" width="2.0" height="43.1" fill="#8c959f" opacity="0.55"/>
<rect x="513.2" y="298.2" width="2.0" height="45.8" fill="#8c959f" opacity="0.55"/>
<rect x="516.5" y="301.2" width="2.0" height="42.8" fill="#8c959f" opacity="0.55"/>
<rect x="519.8" y="298.5" width="2.0" height="45.5" fill="#8c959f" opacity="0.55"/>
<rect x="523.1" y="294.2" width="2.0" height="49.8" fill="#8c959f" opacity="0.55"/>
<rect x="526.4" y="297.1" width="2.0" height="46.9" fill="#8c959f" opacity="0.55"/>
<rect x="529.7" y="298.0" width="2.0" height="46.0" fill="#8c959f" opacity="0.55"/>
<rect x="533.0" y="299.0" width="2.0" height="45.0" fill="#8c959f" opacity="0.55"/>
<rect x="536.4" y="298.0" width="2.0" height="46.0" fill="#8c959f" opacity="0.55"/>
<rect x="539.7" y="295.3" width="2.0" height="48.7" fill="#8c959f" opacity="0.55"/>
<rect x="543.0" y="286.7" width="2.0" height="57.3" fill="#8c959f" opacity="0.55"/>
<rect x="546.3" y="288.2" width="2.0" height="55.8" fill="#8c959f" opacity="0.55"/>
<rect x="549.6" y="289.9" width="2.0" height="54.1" fill="#8c959f" opacity="0.55"/>
<rect x="552.9" y="281.2" width="2.0" height="62.8" fill="#8c959f" opacity="0.55"/>
<rect x="556.2" y="286.4" width="2.0" height="57.6" fill="#8c959f" opacity="0.55"/>
<rect x="559.5" y="286.5" width="2.0" height="57.5" fill="#8c959f" opacity="0.55"/>
<rect x="562.8" y="284.3" width="2.0" height="59.7" fill="#8c959f" opacity="0.55"/>
<rect x="566.1" y="284.6" width="2.0" height="59.4" fill="#8c959f" opacity="0.55"/>
<rect x="569.4" y="292.6" width="2.0" height="51.4" fill="#8c959f" opacity="0.55"/>
<rect x="572.7" y="292.7" width="2.0" height="51.3" fill="#8c959f" opacity="0.55"/>
<rect x="576.0" y="291.5" width="2.0" height="52.5" fill="#8c959f" opacity="0.55"/>
<rect x="579.3" y="282.2" width="2.0" height="61.8" fill="#8c959f" opacity="0.55"/>
<rect x="582.6" y="292.4" width="2.0" height="51.6" fill="#8c959f" opacity="0.55"/>
<rect x="585.9" y="287.1" width="2.0" height="56.9" fill="#8c959f" opacity="0.55"/>
<rect x="589.2" y="286.4" width="2.0" height="57.6" fill="#8c959f" opacity="0.55"/>
<rect x="592.5" y="286.5" width="2.0" height="57.5" fill="#8c959f" opacity="0.55"/>
<rect x="595.8" y="291.3" width="2.0" height="52.7" fill="#8c959f" opacity="0.55"/>
<rect x="599.1" y="285.1" width="2.0" height="58.9" fill="#8c959f" opacity="0.55"/>
<rect x="602.4" y="292.9" width="2.0" height="51.1" fill="#8c959f" opacity="0.55"/>
<rect x="605.7" y="294.4" width="2.0" height="49.6" fill="#8c959f" opacity="0.55"/>
<rect x="609.0" y="288.4" width="2.0" height="55.6" fill="#8c959f" opacity="0.55"/>
<rect x="612.3" y="295.0" width="2.0" height="49.0" fill="#8c959f" opacity="0.55"/>
<rect x="615.6" y="289.5" width="2.0" height="54.5" fill="#8c959f" opacity="0.55"/>
<rect x="618.9" y="294.4" width="2.0" height="49.6" fill="#8c959f" opacity="0.55"/>
<rect x="622.2" y="297.1" width="2.0" height="46.9" fill="#8c959f" opacity="0.55"/>
<rect x="625.5" y="297.5" width="2.0" height="46.5" fill="#8c959f" opacity="0.55"/>
<rect x="628.8" y="298.7" width="2.0" height="45.3" fill="#8c959f" opacity="0.55"/>
<rect x="632.1" y="286.9" width="2.0" height="57.1" fill="#8c959f" opacity="0.55"/>
<rect x="635.4" y="290.2" width="2.0" height="53.8" fill="#8c959f" opacity="0.55"/>
<rect x="638.7" y="289.6" width="2.0" height="54.4" fill="#8c959f" opacity="0.55"/>
<rect x="642.0" y="289.1" width="2.0" height="54.9" fill="#8c959f" opacity="0.55"/>
<rect x="645.3" y="285.2" width="2.0" height="58.8" fill="#8c959f" opacity="0.55"/>
<rect x="648.6" y="277.6" width="2.0" height="66.4" fill="#8c959f" opacity="0.55"/>
<rect x="651.9" y="282.9" width="2.0" height="61.1" fill="#8c959f" opacity="0.55"/>
<rect x="655.2" y="285.7" width="2.0" height="58.3" fill="#8c959f" opacity="0.55"/>
<rect x="658.5" y="280.2" width="2.0" height="63.8" fill="#8c959f" opacity="0.55"/>
<rect x="661.8" y="280.9" width="2.0" height="63.1" fill="#8c959f" opacity="0.55"/>
<rect x="665.1" y="281.5" width="2.0" height="62.5" fill="#8c959f" opacity="0.55"/>
<rect x="668.4" y="285.9" width="2.0" height="58.1" fill="#8c959f" opacity="0.55"/>
<rect x="671.7" y="279.0" width="2.0" height="65.0" fill="#8c959f" opacity="0.55"/>
<rect x="675.0" y="282.7" width="2.0" height="61.3" fill="#8c959f" opacity="0.55"/>
<rect x="678.3" y="287.5" width="2.0" height="56.5" fill="#8c959f" opacity="0.55"/>
<rect x="681.6" y="289.1" width="2.0" height="54.9" fill="#8c959f" opacity="0.55"/>
<rect x="684.9" y="298.2" width="2.0" height="45.8" fill="#8c959f" opacity="0.55"/>
<rect x="688.2" y="298.5" width="2.0" height="45.5" fill="#8c959f" opacity="0.55"/>
<rect x="691.5" y="292.3" width="2.0" height="51.7" fill="#8c959f" opacity="0.55"/>
<rect x="694.8" y="283.8" width="2.0" height="60.2" fill="#8c959f" opacity="0.55"/>
<rect x="698.1" y="294.0" width="2.0" height="50.0" fill="#8c959f" opacity="0.55"/>
<rect x="701.4" y="296.0" width="2.0" height="48.0" fill="#8c959f" opacity="0.55"/>
<rect x="704.7" y="298.3" width="2.0" height="45.7" fill="#8c959f" opacity="0.55"/>
<rect x="708.0" y="301.3" width="2.0" height="42.7" fill="#8c959f" opacity="0.55"/>
<rect x="711.3" y="296.8" width="2.0" height="47.2" fill="#8c959f" opacity="0.55"/>
<rect x="714.6" y="296.0" width="2.0" height="48.0" fill="#8c959f" opacity="0.55"/>
<rect x="717.9" y="291.5" width="2.0" height="52.5" fill="#8c959f" opacity="0.55"/>
<rect x="721.2" y="296.9" width="2.0" height="47.1" fill="#8c959f" opacity="0.55"/>
<rect x="724.5" y="305.0" width="2.0" height="39.0" fill="#8c959f" opacity="0.55"/>
<rect x="727.8" y="309.7" width="2.0" height="34.3" fill="#8c959f" opacity="0.55"/>
<rect x="731.1" y="307.1" width="2.0" height="36.9" fill="#8c959f" opacity="0.55"/>
<rect x="734.4" y="308.0" width="2.0" height="36.0" fill="#8c959f" opacity="0.55"/>
<rect x="737.7" y="303.2" width="2.0" height="40.8" fill="#8c959f" opacity="0.55"/>
<rect x="741.0" y="302.4" width="2.0" height="41.6" fill="#8c959f" opacity="0.55"/>
<rect x="744.3" y="298.9" width="2.0" height="45.1" fill="#8c959f" opacity="0.55"/>
<rect x="747.6" y="308.5" width="2.0" height="35.5" fill="#8c959f" opacity="0.55"/>
<rect x="750.9" y="304.7" width="2.0" height="39.3" fill="#8c959f" opacity="0.55"/>
<rect x="754.2" y="296.8" width="2.0" height="47.2" fill="#8c959f" opacity="0.55"/>
<rect x="757.5" y="299.1" width="2.0" height="44.9" fill="#8c959f" opacity="0.55"/>
<rect x="760.8" y="296.7" width="2.0" height="47.3" fill="#8c959f" opacity="0.55"/>
<rect x="764.1" y="299.2" width="2.0" height="44.8" fill="#8c959f" opacity="0.55"/>
<rect x="767.4" y="302.8" width="2.0" height="41.2" fill="#8c959f" opacity="0.55"/>
<rect x="770.7" y="305.8" width="2.0" height="38.2" fill="#8c959f" opacity="0.55"/>
<rect x="774.0" y="298.7" width="2.0" height="45.3" fill="#8c959f" opacity="0.55"/>
<rect x="777.3" y="305.9" width="2.0" height="38.1" fill="#8c959f" opacity="0.55"/>
<rect x="780.6" y="301.6" width="2.0" height="42.4" fill="#8c959f" opacity="0.55"/>
<rect x="783.9" y="301.4" width="2.0" height="42.6" fill="#8c959f" opacity="0.55"/>
<rect x="787.2" y="299.4" width="2.0" height="44.6" fill="#8c959f" opacity="0.55"/>
<rect x="790.5" y="307.1" width="2.0" height="36.9" fill="#8c959f" opacity="0.55"/>
<rect x="793.8" y="310.6" width="2.0" height="33.4" fill="#8c959f" opacity="0.55"/>
<rect x="797.1" y="308.3" width="2.0" height="35.7" fill="#8c959f" opacity="0.55"/>
<rect x="800.4" y="311.5" width="2.0" height="32.5" fill="#8c959f" opacity="0.55"/>
<rect x="803.7" y="311.9" width="2.0" height="32.1" fill="#8c959f" opacity="0.55"/>
<rect x="807.0" y="306.2" width="2.0" height="37.8" fill="#8c959f" opacity="0.55"/>
<rect x="810.4" y="306.7" width="2.0" height="37.3" fill="#8c959f" opacity="0.55"/>
<rect x="813.7" y="306.2" width="2.0" height="37.8" fill="#8c959f" opacity="0.55"/>
<rect x="817.0" y="307.9" width="2.0" height="36.1" fill="#8c959f" opacity="0.55"/>
<rect x="820.3" y="312.2" width="2.0" height="31.8" fill="#8c959f" opacity="0.55"/>
<rect x="823.6" y="312.8" width="2.0" height="31.2" fill="#8c959f" opacity="0.55"/>
<rect x="826.9" y="307.9" width="2.0" height="36.1" fill="#8c959f" opacity="0.55"/>
<rect x="830.2" y="309.4" width="2.0" height="34.6" fill="#8c959f" opacity="0.55"/>
<rect x="833.5" y="309.2" width="2.0" height="34.8" fill="#8c959f" opacity="0.55"/>
<rect x="836.8" y="311.0" width="2.0" height="33.0" fill="#8c959f" opacity="0.55"/>
<rect x="840.1" y="314.7" width="2.0" height="29.3" fill="#8c959f" opacity="0.55"/>
<rect x="843.4" y="309.0" width="2.0" height="35.0" fill="#8c959f" opacity="0.55"/>
<rect x="846.7" y="315.1" width="2.0" height="28.9" fill="#8c959f" opacity="0.55"/>
<rect x="850.0" y="315.4" width="2.0" height="28.6" fill="#8c959f" opacity="0.55"/>
<rect x="853.3" y="311.3" width="2.0" height="32.7" fill="#8c959f" opacity="0.55"/>
<rect x="856.6" y="311.6" width="2.0" height="32.4" fill="#8c959f" opacity="0.55"/>
<rect x="859.9" y="307.1" width="2.0" height="36.9" fill="#8c959f" opacity="0.55"/>
<rect x="863.2" y="307.9" width="2.0" height="36.1" fill="#8c959f" opacity="0.55"/>
<rect x="866.5" y="306.1" width="2.0" height="37.9" fill="#8c959f" opacity="0.55"/>
<rect x="869.8" y="312.7" width="2.0" height="31.3" fill="#8c959f" opacity="0.55"/>
<rect x="873.1" y="314.6" width="2.0" height="29.4" fill="#8c959f" opacity="0.55"/>
<rect x="876.4" y="313.8" width="2.0" height="30.2" fill="#8c959f" opacity="0.55"/>
<rect x="879.7" y="319.0" width="2.0" height="25.0" fill="#8c959f" opacity="0.55"/>
<rect x="883.0" y="318.5" width="2.0" height="25.5" fill="#8c959f" opacity="0.55"/>
<text x="884" y="284" font-size="11" fill="#57606a" text-anchor="end">峰值 39415 亿</text>
<text x="62.0" y="264" font-size="11" fill="#57606a" text-anchor="start">2025-09-18</text>
<text x="474.7" y="264" font-size="11" fill="#57606a" text-anchor="middle">2026-04-01</text>
<text x="884.0" y="264" font-size="11" fill="#57606a" text-anchor="end">2026-09-30</text>
<text x="884" y="13" font-size="12" fill="#57606a" text-anchor="end">3842.19　区间 +0.3%</text>
</svg>