<?xml version="1.0" encoding="UTF-8"?>
<svg xmlns="http://www.w3.org/2000/svg" width="900" height="380" viewBox="0 0 900 380" font-family="-apple-system,Segoe UI,Helvetica,Arial,sans-serif">
<text x="62" y="13" font-size="12" fill="#57606a">创业板指　2025-09-15 ~ 2026-09-24　共 250 个交易日</text>
<line x1="62" y1="18.0" x2="884" y2="18.0" stroke="#d0d7de" stroke-width="1" stroke-dasharray="3 3"/>
<text x="56" y="22.0" font-size="11" fill="#57606a" text-anchor="end">4488</text>
<line x1="62" y1="75.5" x2="884" y2="75.5" stroke="#d0d7de" stroke-width="1" stroke-dasharray="3 3"/>
<text x="56" y="79.5" font-size="11" fill="#57606a" text-anchor="end">4067</text>
<line x1="62" y1="133.0" x2="884" y2="133.0" stroke="#d0d7de" stroke-width="1" stroke-dasharray="3 3"/>
<text x="56" y="137.0" font-size="11" fill="#57606a" text-anchor="end">3646</text>
<line x1="62" y1="190.5" x2="884" y2="190.5" stroke="#d0d7de" stroke-width="1" stroke-dasharray="3 3"/>
<text x="56" y="194.5" font-size="11" fill="#57606a" text-anchor="end">3225</text>
<line x1="62" y1="248.0" x2="884" y2="248.0" stroke="#d0d7de" stroke-width="1" stroke-dasharray="3 3"/>
<text x="56" y="252.0" font-size="11" fill="#57606a" text-anchor="end">2804</text>
<polyline points="62.0,212.2 65.3,209.3 68.6,201.1 71.9,208.1 75.2,208.8 78.5,206.5 81.8,205.6 85.1,195.9 88.4,189.0 91.7,200.5 95.0,188.7 98.3,188.7 101.6,185.5 104.9,205.8 108.2,210.5 111.5,227.2 114.8,217.7 118.1,216.1 121.4,230.0 124.7,222.1 128.0,209.8 131.3,213.1 134.6,212.7 137.9,197.8 141.2,189.2 144.5,189.9 147.8,176.9 151.1,185.3 154.4,195.6 157.7,194.3 161.0,202.9 164.3,198.5 167.6,190.5 170.9,192.8 174.2,196.8 177.5,202.9 180.8,204.6 184.1,193.7 187.4,206.0 190.7,206.9 194.0,211.8 197.3,210.7 200.7,215.4 204.0,232.1 207.3,230.9 210.6,223.8 213.9,215.1 217.2,216.9 220.5,214.0 223.8,208.6 227.1,211.5 230.4,216.2 233.7,212.0 237.0,206.3 240.3,195.2 243.6,192.6 246.9,192.7 250.2,198.9 253.5,194.7 256.8,202.4 260.1,211.4 263.4,197.2 266.7,206.6 270.0,204.5 273.3,195.0 276.6,193.2 279.9,189.9 283.2,188.5 286.5,187.9 289.8,190.8 293.1,188.1 296.4,193.5 299.7,181.0 303.0,177.6 306.3,176.2 309.6,179.9 312.9,176.5 316.2,168.2 319.5,177.3 322.8,173.5 326.1,171.0 329.4,171.9 332.7,175.1 336.0,183.3 339.3,180.9 342.6,176.3 345.9,173.5 349.2,177.6 352.5,174.4 355.8,177.0 359.1,179.6 362.4,173.9 365.7,185.2 369.0,176.9 372.3,178.7 375.6,185.7 378.9,188.9 382.2,175.8 385.5,177.5 388.8,182.3 392.1,176.4 395.4,183.5 398.7,179.1 402.0,172.8 405.3,174.1 408.6,178.8 411.9,181.1 415.2,192.6 418.5,198.8 421.8,191.6 425.1,189.9 428.4,192.7 431.7,179.4 435.0,173.5 438.3,177.9 441.6,178.9 444.9,172.5 448.2,183.0 451.5,173.9 454.8,179.0 458.1,173.1 461.4,189.1 464.7,186.9 468.0,177.9 471.3,184.0 474.7,180.8 478.0,183.9 481.3,196.0 484.6,187.4 487.9,197.6 491.2,200.8 494.5,199.3 497.8,173.8 501.1,177.1 504.4,159.9 507.7,156.2 511.0,144.9 514.3,150.9 517.6,135.7 520.9,128.6 524.2,128.7 527.5,127.1 530.8,118.4 534.1,122.9 537.4,130.0 540.7,132.6 544.0,139.7 547.3,127.4 550.6,128.8 553.9,115.0 557.2,107.5 560.5,112.5 563.8,94.4 567.1,93.6 570.4,79.4 573.7,91.3 577.0,94.3 580.3,96.3 583.6,97.2 586.9,95.3 590.2,107.9 593.5,93.1 596.8,81.8 600.1,78.8 603.4,78.4 606.7,67.6 610.0,79.5 613.3,91.4 616.6,77.0 619.9,67.9 623.2,72.5 626.5,90.4 629.8,110.4 633.1,89.9 636.4,104.5 639.7,110.4 643.0,107.8 646.3,80.1 649.6,70.6 652.9,61.8 656.2,50.2 659.5,35.6 662.8,58.4 666.1,50.3 669.4,33.9 672.7,58.1 676.0,55.1 679.3,37.9 682.6,49.1 685.9,82.3 689.2,81.9 692.5,91.6 695.8,96.7 699.1,105.8 702.4,82.2 705.7,106.1 709.0,122.4 712.3,105.0 715.6,111.3 718.9,126.7 722.2,162.7 725.5,160.7 728.8,127.5 732.1,143.8 735.4,142.6 738.7,155.6 742.0,140.5 745.3,176.6 748.7,169.5 752.0,187.8 755.3,174.3 758.6,179.9 761.9,154.4 765.2,148.1 768.5,150.8 771.8,144.3 775.1,147.9 778.4,146.2 781.7,139.0 785.0,141.2 788.3,135.7 791.6,120.1 794.9,124.9 798.2,156.6 801.5,153.5 804.8,146.7 808.1,162.2 811.4,166.9 814.7,164.6 818.0,156.6 821.3,163.3 824.6,161.3 827.9,167.5 831.2,178.6 834.5,178.5 837.8,182.1 841.1,166.8 844.4,172.1 847.7,172.7 851.0,175.0 854.3,177.2 857.6,182.2 860.9,187.4 864.2,178.7 867.5,180.5 870.8,170.3 874.1,166.7 877.4,166.6 880.7,169.4 884.0,181.8" fill="none" stroke="#c9211e" stroke-width="1.6" stroke-linejoin="round"/>
<text x="56" y="284" font-size="11" fill="#57606a" text-anchor="end">成交额</text>
<rect x="61.0" y="303.6" width="2.0" height="40.4" fill="#8c959f" opacity="0.55"/>
<rect x="64.3" y="302.4" width="2.0" height="41.6" fill="#8c959f" opacity="0.55"/>
<rect x="67.6" y="301.8" width="2.0" height="42.2" fill="#8c959f" opacity="0.55"/>
<rect x="70.9" y="288.3" width="2.0" height="55.7" fill="#8c959f" opacity="0.55"/>
<rect x="74.2" y="302.7" width="2.0" height="41.3" fill="#8c959f" opacity="0.55"/>
<rect x="77.5" y="306.3" width="2.0" height="37.7" fill="#8c959f" opacity="0.55"/>
<rect x="80.8" y="299.7" width="2.0" height="44.3" fill="#8c959f" opacity="0.55"/>
<rect x="84.1" y="302.7" width="2.0" height="41.3" fill="#8c959f" opacity="0.55"/>
<rect x="87.4" y="301.9" width="2.0" height="42.1" fill="#8c959f" opacity="0.55"/>
<rect x="90.7" y="305.9" width="2.0" height="38.1" fill="#8c959f" opacity="0.55"/>
<rect x="94.0" y="305.6" width="2.0" height="38.4" fill="#8c959f" opacity="0.55"/>
<rect x="97.3" y="305.3" width="2.0" height="38.7" fill="#8c959f" opacity="0.55"/>
<rect x="100.6" y="296.9" width="2.0" height="47.1" fill="#8c959f" opacity="0.55"/>
<rect x="103.9" y="299.3" width="2.0" height="44.7" fill="#8c959f" opacity="0.55"/>
<rect x="107.2" y="302.2" width="2.0" height="41.8" fill="#8c959f" opacity="0.55"/>
<rect x="110.5" y="298.2" width="2.0" height="45.8" fill="#8c959f" opacity="0.55"/>
<rect x="113.8" y="307.2" width="2.0" height="36.8" fill="#8c959f" opacity="0.55"/>
<rect x="117.1" y="309.7" width="2.0" height="34.3" fill="#8c959f" opacity="0.55"/>
<rect x="120.4" y="309.6" width="2.0" height="34.4" fill="#8c959f" opacity="0.55"/>
<rect x="123.7" y="313.1" width="2.0" height="30.9" fill="#8c959f" opacity="0.55"/>
<rect x="127.0" y="310.7" width="2.0" height="33.3" fill="#8c959f" opacity="0.55"/>
<rect x="130.3" y="314.4" width="2.0" height="29.6" fill="#8c959f" opacity="0.55"/>
<rect x="133.6" y="314.8" width="2.0" height="29.2" fill="#8c959f" opacity="0.55"/>
<rect x="136.9" y="308.9" width="2.0" height="35.1" fill="#8c959f" opacity="0.55"/>
<rect x="140.2" y="302.4" width="2.0" height="41.6" fill="#8c959f" opacity="0.55"/>
<rect x="143.5" y="305.9" width="2.0" height="38.1" fill="#8c959f" opacity="0.55"/>
<rect x="146.8" y="303.9" width="2.0" height="40.1" fill="#8c959f" opacity="0.55"/>
<rect x="150.1" y="301.0" width="2.0" height="43.0" fill="#8c959f" opacity="0.55"/>
<rect x="153.4" y="302.8" width="2.0" height="41.2" fill="#8c959f" opacity="0.55"/>
<rect x="156.7" y="306.6" width="2.0" height="37.4" fill="#8c959f" opacity="0.55"/>
<rect x="160.0" y="310.0" width="2.0" height="34.0" fill="#8c959f" opacity="0.55"/>
<rect x="163.3" y="310.7" width="2.0" height="33.3" fill="#8c959f" opacity="0.55"/>
<rect x="166.6" y="307.5" width="2.0" height="36.5" fill="#8c959f" opacity="0.55"/>
<rect x="169.9" y="308.5" width="2.0" height="35.5" fill="#8c959f" opacity="0.55"/>
<rect x="173.2" y="305.4" width="2.0" height="38.6" fill="#8c959f" opacity="0.55"/>
<rect x="176.5" y="308.6" width="2.0" height="35.4" fill="#8c959f" opacity="0.55"/>
<rect x="179.8" y="309.5" width="2.0" height="34.5" fill="#8c959f" opacity="0.55"/>
<rect x="183.1" y="307.7" width="2.0" height="36.3" fill="#8c959f" opacity="0.55"/>
<rect x="186.4" y="309.2" width="2.0" height="34.8" fill="#8c959f" opacity="0.55"/>
<rect x="189.7" y="310.1" width="2.0" height="33.9" fill="#8c959f" opacity="0.55"/>
<rect x="193.0" y="309.8" width="2.0" height="34.2" fill="#8c959f" opacity="0.55"/>
<rect x="196.3" y="313.3" width="2.0" height="30.7" fill="#8c959f" opacity="0.55"/>
<rect x="199.6" y="313.7" width="2.0" height="30.3" fill="#8c959f" opacity="0.55"/>
<rect x="202.9" y="309.1" width="2.0" height="34.9" fill="#8c959f" opacity="0.55"/>
<rect x="206.2" y="313.3" width="2.0" height="30.7" fill="#8c959f" opacity="0.55"/>
<rect x="209.5" y="311.8" width="2.0" height="32.2" fill="#8c959f" opacity="0.55"/>
<rect x="212.8" y="312.3" width="2.0" height="31.7" fill="#8c959f" opacity="0.55"/>
<rect x="216.1" y="313.6" width="2.0" height="30.4" fill="#8c959f" opacity="0.55"/>
<rect x="219.4" y="315.8" width="2.0" height="28.2" fill="#8c959f" opacity="0.55"/>
<rect x="222.7" y="310.7" width="2.0" height="33.3" fill="#8c959f" opacity="0.55"/>
<rect x="226.0" y="315.7" width="2.0" height="28.3" fill="#8c959f" opacity="0.55"/>
<rect x="229.3" y="314.3" width="2.0" height="29.7" fill="#8c959f" opacity="0.55"/>
<rect x="232.6" y="316.5" width="2.0" height="27.5" fill="#8c959f" opacity="0.55"/>
<rect x="235.9" y="313.4" width="2.0" height="30.6" fill="#8c959f" opacity="0.55"/>
<rect x="239.2" y="307.8" width="2.0" height="36.2" fill="#8c959f" opacity="0.55"/>
<rect x="242.5" y="310.2" width="2.0" height="33.8" fill="#8c959f" opacity="0.55"/>
<rect x="245.8" y="312.4" width="2.0" height="31.6" fill="#8c959f" opacity="0.55"/>
<rect x="249.1" y="311.0" width="2.0" height="33.0" fill="#8c959f" opacity="0.55"/>
<rect x="252.4" y="306.8" width="2.0" height="37.2" fill="#8c959f" opacity="0.55"/>
<rect x="255.7" y="312.5" width="2.0" height="31.5" fill="#8c959f" opacity="0.55"/>
<rect x="259.0" y="313.4" width="2.0" height="30.6" fill="#8c959f" opacity="0.55"/>
<rect x="262.4" y="311.8" width="2.0" height="32.2" fill="#8c959f" opacity="0.55"/>
<rect x="265.7" y="314.6" width="2.0" height="29.4" fill="#8c959f" opacity="0.55"/>
<rect x="269.0" y="313.3" width="2.0" height="30.7" fill="#8c959f" opacity="0.55"/>
<rect x="272.3" y="310.9" width="2.0" height="33.1" fill="#8c959f" opacity="0.55"/>
<rect x="275.6" y="310.3" width="2.0" height="33.7" fill="#8c959f" opacity="0.55"/>
<rect x="278.9" y="310.6" width="2.0" height="33.4" fill="#8c959f" opacity="0.55"/>
<rect x="282.2" y="309.8" width="2.0" height="34.2" fill="#8c959f" opacity="0.55"/>
<rect x="285.5" y="305.6" width="2.0" height="38.4" fill="#8c959f" opacity="0.55"/>
<rect x="288.8" y="306.0" width="2.0" height="38.0" fill="#8c959f" opacity="0.55"/>
<rect x="292.1" y="305.9" width="2.0" height="38.1" fill="#8c959f" opacity="0.55"/>
<rect x="295.4" y="307.7" width="2.0" height="36.3" fill="#8c959f" opacity="0.55"/>
<rect x="298.7" y="298.8" width="2.0" height="45.2" fill="#8c959f" opacity="0.55"/>
<rect x="302.0" y="294.2" width="2.0" height="49.8" fill="#8c959f" opacity="0.55"/>
<rect x="305.3" y="293.3" width="2.0" height="50.7" fill="#8c959f" opacity="0.55"/>
<rect x="308.6" y="294.3" width="2.0" height="49.7" fill="#8c959f" opacity="0.55"/>
<rect x="311.9" y="288.5" width="2.0" height="55.5" fill="#8c959f" opacity="0.55"/>
<rect x="315.2" y="280.0" width="2.0" height="64.0" fill="#8c959f" opacity="0.55"/>
<rect x="318.5" y="279.2" width="2.0" height="64.8" fill="#8c959f" opacity="0.55"/>
<rect x="321.8" y="274.0" width="2.0" height="70.0" fill="#8c959f" opacity="0.55"/>
<rect x="325.1" y="292.4" width="2.0" height="51.6" fill="#8c959f" opacity="0.55"/>
<rect x="328.4" y="290.3" width="2.0" height="53.7" fill="#8c959f" opacity="0.55"/>
<rect x="331.7" y="295.9" width="2.0" height="48.1" fill="#8c959f" opacity="0.55"/>
<rect x="335.0" y="294.7" width="2.0" height="49.3" fill="#8c959f" opacity="0.55"/>
<rect x="338.3" y="297.8" width="2.0" height="46.2" fill="#8c959f" opacity="0.55"/>
<rect x="341.6" y="296.2" width="2.0" height="47.8" fill="#8c959f" opacity="0.55"/>
<rect x="344.9" y="289.2" width="2.0" height="54.8" fill="#8c959f" opacity="0.55"/>
<rect x="348.2" y="286.3" width="2.0" height="57.7" fill="#8c959f" opacity="0.55"/>
<rect x="351.5" y="292.6" width="2.0" height="51.4" fill="#8c959f" opacity="0.55"/>
<rect x="354.8" y="291.3" width="2.0" height="52.7" fill="#8c959f" opacity="0.55"/>
<rect x="358.1" y="286.6" width="2.0" height="57.4" fill="#8c959f" opacity="0.55"/>
<rect x="361.4" y="293.6" width="2.0" height="50.4" fill="#8c959f" opacity="0.55"/>
<rect x="364.7" y="298.1" width="2.0" height="45.9" fill="#8c959f" opacity="0.55"/>
<rect x="368.0" y="298.8" width="2.0" height="45.2" fill="#8c959f" opacity="0.55"/>
<rect x="371.3" y="299.9" width="2.0" height="44.1" fill="#8c959f" opacity="0.55"/>
<rect x="374.6" y="305.4" width="2.0" height="38.6" fill="#8c959f" opacity="0.55"/>
<rect x="377.9" y="305.9" width="2.0" height="38.1" fill="#8c959f" opacity="0.55"/>
<rect x="381.2" y="304.0" width="2.0" height="40.0" fill="#8c959f" opacity="0.55"/>
<rect x="384.5" y="306.6" width="2.0" height="37.4" fill="#8c959f" opacity="0.55"/>
<rect x="387.8" y="308.8" width="2.0" height="35.2" fill="#8c959f" opacity="0.55"/>
<rect x="391.1" y="306.0" width="2.0" height="38.0" fill="#8c959f" opacity="0.55"/>
<rect x="394.4" y="308.8" width="2.0" height="35.2" fill="#8c959f" opacity="0.55"/>
<rect x="397.7" y="304.9" width="2.0" height="39.1" fill="#8c959f" opacity="0.55"/>
<rect x="401.0" y="300.3" width="2.0" height="43.7" fill="#8c959f" opacity="0.55"/>
<rect x="404.3" y="298.9" width="2.0" height="45.1" fill="#8c959f" opacity="0.55"/>
<rect x="407.6" y="299.8" width="2.0" height="44.2" fill="#8c959f" opacity="0.55"/>
<rect x="410.9" y="290.4" width="2.0" height="53.6" fill="#8c959f" opacity="0.55"/>
<rect x="414.2" y="288.4" width="2.0" height="55.6" fill="#8c959f" opacity="0.55"/>
<rect x="417.5" y="302.0" width="2.0" height="42.0" fill="#8c959f" opacity="0.55"/>
<rect x="420.8" y="301.6" width="2.0" height="42.4" fill="#8c959f" opacity="0.55"/>
<rect x="424.1" y="304.9" width="2.0" height="39.1" fill="#8c959f" opacity="0.55"/>
<rect x="427.4" y="297.0" width="2.0" height="47.0" fill="#8c959f" opacity="0.55"/>
<rect x="430.7" y="301.4" width="2.0" height="42.6" fill="#8c959f" opacity="0.55"/>
<rect x="434.0" y="299.5" width="2.0" height="44.5" fill="#8c959f" opacity="0.55"/>
<rect x="437.3" y="300.6" width="2.0" height="43.4" fill="#8c959f" opacity="0.55"/>
<rect x="440.6" y="301.4" width="2.0" height="42.6" fill="#8c959f" opacity="0.55"/>
<rect x="443.9" y="302.7" width="2.0" height="41.3" fill="#8c959f" opacity="0.55"/>
<rect x="447.2" y="304.8" width="2.0" height="39.2" fill="#8c959f" opacity="0.55"/>
<rect x="450.5" y="307.7" width="2.0" height="36.3" fill="#8c959f" opacity="0.55"/>
<rect x="453.8" y="306.5" width="2.0" height="37.5" fill="#8c959f" opacity="0.55"/>
<rect x="457.1" y="303.4" width="2.0" height="40.6" fill="#8c959f" opacity="0.55"/>
<rect x="460.4" y="300.8" width="2.0" height="43.2" fill="#8c959f" opacity="0.55"/>
<rect x="463.7" y="307.0" width="2.0" height="37.0" fill="#8c959f" opacity="0.55"/>
<rect x="467.0" y="305.3" width="2.0" height="38.7" fill="#8c959f" opacity="0.55"/>
<rect x="470.3" y="309.5" width="2.0" height="34.5" fill="#8c959f" opacity="0.55"/>
<rect x="473.6" y="311.1" width="2.0" height="32.9" fill="#8c959f" opacity="0.55"/>
<rect x="476.9" y="310.0" width="2.0" height="34.0" fill="#8c959f" opacity="0.55"/>
<rect x="480.2" y="308.6" width="2.0" height="35.4" fill="#8c959f" opacity="0.55"/>
<rect x="483.5" y="308.3" width="2.0" height="35.7" fill="#8c959f" opacity="0.55"/>
<rect x="486.8" y="311.3" width="2.0" height="32.7" fill="#8c959f" opacity="0.55"/>
<rect x="490.1" y="314.6" width="2.0" height="29.4" fill="#8c959f" opacity="0.55"/>
<rect x="493.4" y="315.3" width="2.0" height="28.7" fill="#8c959f" opacity="0.55"/>
<rect x="496.7" y="300.8" width="2.0" height="43.2" fill="#8c959f" opacity="0.55"/>
<rect x="500.0" y="306.1" width="2.0" height="37.9" fill="#8c959f" opacity="0.55"/>
<rect x="503.3" y="302.7" width="2.0" height="41.3" fill="#8c959f" opacity="0.55"/>
<rect x="506.6" y="305.8" width="2.0" height="38.2" fill="#8c959f" opacity="0.55"/>
<rect x="509.9" y="301.7" width="2.0" height="42.3" fill="#8c959f" opacity="0.55"/>
<rect x="513.2" y="301.1" width="2.0" height="42.9" fill="#8c959f" opacity="0.55"/>
<rect x="516.5" y="302.4" width="2.0" height="41.6" fill="#8c959f" opacity="0.55"/>
<rect x="519.8" y="300.9" width="2.0" height="43.1" fill="#8c959f" opacity="0.55"/>
<rect x="523.1" y="298.2" width="2.0" height="45.8" fill="#8c959f" opacity="0.55"/>
<rect x="526.4" y="301.2" width="2.0" height="42.8" fill="#8c959f" opacity="0.55"/>
<rect x="529.7" y="298.5" width="2.0" height="45.5" fill="#8c959f" opacity="0.55"/>
<rect x="533.0" y="294.2" width="2.0" height="49.8" fill="#8c959f" opacity="0.55"/>
<rect x="536.4" y="297.1" width="2.0" height="46.9" fill="#8c959f" opacity="0.55"/>
<rect x="539.7" y="298.0" width="2.0" height="46.0" fill="#8c959f" opacity="0.55"/>
<rect x="543.0" y="299.0" width="2.0" height="45.0" fill="#8c959f" opacity="0.55"/>
<rect x="546.3" y="298.0" width="2.0" height="46.0" fill="#8c959f" opacity="0.55"/>
<rect x="549.6" y="295.3" width="2.0" height="48.7" fill="#8c959f" opacity="0.55"/>
<rect x="552.9" y="286.7" width="2.0" height="57.3" fill="#8c959f" opacity="0.55"/>
<rect x="556.2" y="288.2" width="2.0" height="55.8" fill="#8c959f" opacity="0.55"/>
<rect x="559.5" y="289.9" width="2.0" height="54.1" fill="#8c959f" opacity="0.55"/>
<rect x="562.8" y="281.2" width="2.0" height="62.8" fill="#8c959f" opacity="0.55"/>
<rect x="566.1" y="286.4" width="2.0" height="57.6" fill="#8c959f" opacity="0.55"/>
<rect x="569.4" y="286.5" width="2.0" height="57.5" fill="#8c959f" opacity="0.55"/>
<rect x="572.7" y="284.3" width="2.0" height="59.7" fill="#8c959f" opacity="0.55"/>
<rect x="576.0" y="284.6" width="2.0" height="59.4" fill="#8c959f" opacity="0.55"/>
<rect x="579.3" y="292.6" width="2.0" height="51.4" fill="#8c959f" opacity="0.55"/>
<rect x="582.6" y="292.7" width="2.0" height="51.3" fill="#8c959f" opacity="0.55"/>
<rect x="585.9" y="291.5" width="2.0" height="52.5" fill="#8c959f" opacity="0.55"/>
<rect x="589.2" y="282.2" width="2.0" height="61.8" fill="#8c959f" opacity="0.55"/>
<rect x="592.5" y="292.4" width="2.0" height="51.6" fill="#8c959f" opacity="0.55"/>
<rect x="595.8" y="287.1" width="2.0" height="56.9" fill="#8c959f" opacity="0.55"/>
<rect x="599.1" y="286.4" width="2.0" height="57.6" fill="#8c959f" opacity="0.55"/>
<rect x="602.4" y="286.5" width="2.0" height="57.5" fill="#8c959f" opacity="0.55"/>
<rect x="605.7" y="291.3" width="2.0" height="52.7" fill="#8c959f" opacity="0.55"/>
<rect x="609.0" y="285.1" width="2.0" height="58.9" fill="#8c959f" opacity="0.55"/>
<rect x="612.3" y="292.9" width="2.0" height="51.1" fill="#8c959f" opacity="0.55"/>
<rect x="615.6" y="294.4" width="2.0" height="49.6" fill="#8c959f" opacity="0.55"/>
<rect x="618.9" y="288.4" width="2.0" height="55.6" fill="#8c959f" opacity="0.55"/>
<rect x="622.2" y="295.0" width="2.0" height="49.0" fill="#8c959f" opacity="0.55"/>
<rect x="625.5" y="289.5" width="2.0" height="54.5" fill="#8c959f" opacity="0.55"/>
<rect x="628.8" y="294.4" width="2.0" height="49.6" fill="#8c959f" opacity="0.55"/>
<rect x="632.1" y="297.1" width="2.0" height="46.9" fill="#8c959f" opacity="0.55"/>
<rect x="635.4" y="297.5" width="2.0" height="46.5" fill="#8c959f" opacity="0.55"/>
<rect x="638.7" y="298.7" width="2.0" height="45.3" fill="#8c959f" opacity="0.55"/>
<rect x="642.0" y="286.9" width="2.0" height="57.1" fill="#8c959f" opacity="0.55"/>
<rect x="645.3" y="290.2" width="2.0" height="53.8" fill="#8c959f" opacity="0.55"/>
<rect x="648.6" y="289.6" width="2.0" height="54.4" fill="#8c959f" opacity="0.55"/>
<rect x="651.9" y="289.1" width="2.0" height="54.9" fill="#8c959f" opacity="0.55"/>
<rect x="655.2" y="285.2" width="2.0" height="58.8" fill="#8c959f" opacity="0.55"/>
<rect x="658.5" y="277.6" width="2.0" height="66.4" fill="#8c959f" opacity="0.55"/>
<rect x="661.8" y="282.9" width="2.0" height="61.1" fill="#8c959f" opacity="0.55"/>
<rect x="665.1" y="285.7" width="2.0" height="58.3" fill="#8c959f" opacity="0.55"/>
<rect x="668.4" y="280.2" width="2.0" height="63.8" fill="#8c959f" opacity="0.55"/>
<rect x="671.7" y="280.9" width="2.0" height="63.1" fill="#8c959f" opacity="0.55"/>
<rect x="675.0" y="281.5" width="2.0" height="62.5" fill="#8c959f" opacity="0.55"/>
<rect x="678.3" y="285.9" width="2.0" height="58.1" fill="#8c959f" opacity="0.55"/>
<rect x="681.6" y="279.0" width="2.0" height="65.0" fill="#8c959f" opacity="0.55"/>
<rect x="684.9" y="282.7" width="2.0" height="61.3" fill="#8c959f" opacity="0.55"/>
<rect x="688.2" y="287.5" width="2.0" height="56.5" fill="#8c959f" opacity="0.55"/>
<rect x="691.5" y="289.1" width="2.0" height="54.9" fill="#8c959f" opacity="0.55"/>
<rect x="694.8" y="298.2" width="2.0" height="45.8" fill="#8c959f" opacity="0.55"/>
<rect x="698.1" y="298.5" width="2.0" height="45.5" fill="#8c959f" opacity="0.55"/>
<rect x="701.4" y="292.3" width="2.0" height="51.7" fill="#8c959f" opacity="0.55"/>
<rect x="704.7" y="283.8" width="2.0" height="60.2" fill="#8c959f" opacity="0.55"/>
<rect x="708.0" y="294.0" width="2.0" height="50.0" fill="#8c959f" opacity="0.55"/>
<rect x="711.3" y="296.0" width="2.0" height="48.0" fill="#8c959f" opacity="0.55"/>
<rect x="714.6" y="298.3" width="2.0" height="45.7" fill="#8c959f" opacity="0.55"/>
<rect x="717.9" y="301.3" width="2.0" height="42.7" fill="#8c959f" opacity="0.55"/>
<rect x="721.2" y="296.8" width="2.0" height="47.2" fill="#8c959f" opacity="0.55"/>
<rect x="724.5" y="296.0" width="2.0" height="48.0" fill="#8c959f" opacity="0.55"/>
<rect x="727.8" y="291.5" width="2.0" height="52.5" fill="#8c959f" opacity="0.55"/>
<rect x="731.1" y="296.9" width="2.0" height="47.1" fill="#8c959f" opacity="0.55"/>
<rect x="734.4" y="305.0" width="2.0" height="39.0" fill="#8c959f" opacity="0.55"/>
<rect x="737.7" y="309.7" width="2.0" height="34.3" fill="#8c959f" opacity="0.55"/>
<rect x="741.0" y="307.1" width="2.0" height="36.9" fill="#8c959f" opacity="0.55"/>
<rect x="744.3" y="308.0" width="2.0" height="36.0" fill="#8c959f" opacity="0.55"/>
<rect x="747.6" y="303.2" width="2.0" height="40.8" fill="#8c959f" opacity="0.55"/>
<rect x="750.9" y="302.4" width="2.0" height="41.6" fill="#8c959f" opacity="0.55"/>
<rect x="754.2" y="298.9" width="2.0" height="45.1" fill="#8c959f" opacity="0.55"/>
<rect x="757.5" y="308.5" width="2.0" height="35.5" fill="#8c959f" opacity="0.55"/>
<rect x="760.8" y="304.7" width="2.0" height="39.3" fill="#8c959f" opacity="0.55"/>
<rect x="764.1" y="296.8" width="2.0" height="47.2" fill="#8c959f" opacity="0.55"/>
<rect x="767.4" y="299.1" width="2.0" height="44.9" fill="#8c959f" opacity="0.55"/>
<rect x="770.7" y="296.7" width="2.0" height="47.3" fill="#8c959f" opacity="0.55"/>
<rect x="774.0" y="299.2" width="2.0" height="44.8" fill="#8c959f" opacity="0.55"/>
<rect x="777.3" y="302.8" width="2.0" height="41.2" fill="#8c959f" opacity="0.55"/>
<rect x="780.6" y="305.8" width="2.0" height="38.2" fill="#8c959f" opacity="0.55"/>
<rect x="783.9" y="298.7" width="2.0" height="45.3" fill="#8c959f" opacity="0.55"/>
<rect x="787.2" y="305.9" width="2.0" height="38.1" fill="#8c959f" opacity="0.55"/>
<rect x="790.5" y="301.6" width="2.0" height="42.4" fill="#8c959f" opacity="0.55"/>
<rect x="793.8" y="301.4" width="2.0" height="42.6" fill="#8c959f" opacity="0.55"/>
<rect x="797.1" y="299.4" width="2.0" height="44.6" fill="#8c959f" opacity="0.55"/>
<rect x="800.4" y="307.1" width="2.0" height="36.9" fill="#8c959f" opacity="0.55"/>
<rect x="803.7" y="310.6" width="2.0" height="33.4" fill="#8c959f" opacity="0.55"/>
<rect x="807.0" y="308.3" width="2.0" height="35.7" fill="#8c959f" opacity="0.55"/>
<rect x="810.4" y="311.5" width="2.0" height="32.5" fill="#8c959f" opacity="0.55"/>
<rect x="813.7" y="311.9" width="2.0" height="32.1" fill="#8c959f" opacity="0.55"/>
<rect x="817.0" y="306.2" width="2.0" height="37.8" fill="#8c959f" opacity="0.55"/>
<rect x="820.3" y="306.7" width="2.0" height="37.3" fill="#8c959f" opacity="0.55"/>
<rect x="823.6" y="306.2" width="2.0" height="37.8" fill="#8c959f" opacity="0.55"/>
<rect x="826.9" y="307.9" width="2.0" height="36.1" fill="#8c959f" opacity="0.55"/>
<rect x="830.2" y="312.2" width="2.0" height="31.8" fill="#8c959f" opacity="0.55"/>
<rect x="833.5" y="312.8" width="2.0" height="31.2" fill="#8c959f" opacity="0.55"/>
<rect x="836.8" y="307.9" width="2.0" height="36.1" fill="#8c959f" opacity="0.55"/>
<rect x="840.1" y="309.4" width="2.0" height="34.6" fill="#8c959f" opacity="0.55"/>
<rect x="843.4" y="309.2" width="2.0" height="34.8" fill="#8c959f" opacity="0.55"/>
<rect x="846.7" y="311.0" width="2.0" height="33.0" fill="#8c959f" opacity="0.55"/>
<rect x="850.0" y="314.7" width="2.0" height="29.3" fill="#8c959f" opacity="0.55"/>
<rect x="853.3" y="309.0" width="2.0" height="35.0" fill="#8c959f" opacity="0.55"/>
<rect x="856.6" y="315.1" width="2.0" height="28.9" fill="#8c959f" opacity="0.55"/>
<rect x="859.9" y="315.4" width="2.0" height="28.6" fill="#8c959f" opacity="0.55"/>
<rect x="863.2" y="311.3" width="2.0" height="32.7" fill="#8c959f" opacity="0.55"/>
<rect x="866.5" y="311.6" width="2.0" height="32.4" fill="#8c959f" opacity="0.55"/>
<rect x="869.8" y="307.1" width="2.0" height="36.9" fill="#8c959f" opacity="0.55"/>
<rect x="873.1" y="307.9" width="2.0" height="36.1" fill="#8c959f" opacity="0.55"/>
<rect x="876.4" y="306.1" width="2.0" height="37.9" fill="#8c959f" opacity="0.55"/>
<rect x="879.7" y="312.7" width="2.0" height="31.3" fill="#8c959f" opacity="0.55"/>
<rect x="883.0" y="314.6" width="2.0" height="29.4" fill="#8c959f" opacity="0.55"/>
<text x="884" y="284" font-size="11" fill="#57606a" text-anchor="end">峰值 39415 亿</text>
<text x="62.0" y="264" font-size="11" fill="#57606a" text-anchor="start">2025-09-15</text>
<text x="474.7" y="264" font-size="11" fill="#57606a" text-anchor="middle">2026-03-27</text>
<text x="884.0" y="264" font-size="11" fill="#57606a" text-anchor="end">2026-09-24</text>
<text x="884" y="13" font-size="12" fill="#57606a" text-anchor="end">3288.95　区间 +7.3%</text>
</svg>