<?xml version="1.0" encoding="UTF-8"?>
<svg xmlns="http://www.w3.org/2000/svg" width="900" height="380" viewBox="0 0 900 380" font-family="-apple-system,Segoe UI,Helvetica,Arial,sans-serif">
<text x="62" y="13" font-size="12" fill="#57606a">创业板指　2025-09-18 ~ 2026-09-30　共 250 个交易日</text>
<line x1="62" y1="18.0" x2="884" y2="18.0" stroke="#d0d7de" stroke-width="1" stroke-dasharray="3 3"/>
<text x="56" y="22.0" font-size="11" fill="#57606a" text-anchor="end">4488</text>
<line x1="62" y1="75.5" x2="884" y2="75.5" stroke="#d0d7de" stroke-width="1" stroke-dasharray="3 3"/>
<text x="56" y="79.5" font-size="11" fill="#57606a" text-anchor="end">4067</text>
<line x1="62" y1="133.0" x2="884" y2="133.0" stroke="#d0d7de" stroke-width="1" stroke-dasharray="3 3"/>
<text x="56" y="137.0" font-size="11" fill="#57606a" text-anchor="end">3646</text>
<line x1="62" y1="190.5" x2="884" y2="190.5" stroke="#d0d7de" stroke-width="1" stroke-dasharray="3 3"/>
<text x="56" y="194.5" font-size="11" fill="#57606a" text-anchor="end">3225</text>
<line x1="62" y1="248.0" x2="884" y2="248.0" stroke="#d0d7de" stroke-width="1" stroke-dasharray="3 3"/>
<text x="56" y="252.0" font-size="11" fill="#57606a" text-anchor="end">2804</text>
<polyline points="62.0,208.1 65.3,208.8 68.6,206.5 71.9,205.6 75.2,195.9 78.5,189.0 81.8,200.5 85.1,188.7 88.4,188.7 91.7,185.5 95.0,205.8 98.3,210.5 101.6,227.2 104.9,217.7 108.2,216.1 111.5,230.0 114.8,222.1 118.1,209.8 121.4,213.1 124.7,212.7 128.0,197.8 131.3,189.2 134.6,189.9 137.9,176.9 141.2,185.3 144.5,195.6 147.8,194.3 151.1,202.9 154.4,198.5 157.7,190.5 161.0,192.8 164.3,196.8 167.6,202.9 170.9,204.6 174.2,193.7 177.5,206.0 180.8,206.9 184.1,211.8 187.4,210.7 190.7,215.4 194.0,232.1 197.3,230.9 200.7,223.8 204.0,215.1 207.3,216.9 210.6,214.0 213.9,208.6 217.2,211.5 220.5,216.2 223.8,212.0 227.1,206.3 230.4,195.2 233.7,192.6 237.0,192.7 240.3,198.9 243.6,194.7 246.9,202.4 250.2,211.4 253.5,197.2 256.8,206.6 260.1,204.5 263.4,195.0 266.7,193.2 270.0,189.9 273.3,188.5 276.6,187.9 279.9,190.8 283.2,188.1 286.5,193.5 289.8,181.0 293.1,177.6 296.4,176.2 299.7,179.9 303.0,176.5 306.3,168.2 309.6,177.3 312.9,173.5 316.2,171.0 319.5,171.9 322.8,175.1 326.1,183.3 329.4,180.9 332.7,176.3 336.0,173.5 339.3,177.6 342.6,174.4 345.9,177.0 349.2,179.6 352.5,173.9 355.8,185.2 359.1,176.9 362.4,178.7 365.7,185.7 369.0,188.9 372.3,175.8 375.6,177.5 378.9,182.3 382.2,176.4 385.5,183.5 388.8,179.1 392.1,172.8 395.4,174.1 398.7,178.8 402.0,181.1 405.3,192.6 408.6,198.8 411.9,191.6 415.2,189.9 418.5,192.7 421.8,179.4 425.1,173.5 428.4,177.9 431.7,178.9 435.0,172.5 438.3,183.0 441.6,173.9 444.9,179.0 448.2,173.1 451.5,189.1 454.8,186.9 458.1,177.9 461.4,184.0 464.7,180.8 468.0,183.9 471.3,196.0 474.7,187.4 478.0,197.6 481.3,200.8 484.6,199.3 487.9,173.8 491.2,177.1 494.5,159.9 497.8,156.2 501.1,144.9 504.4,150.9 507.7,135.7 511.0,128.6 514.3,128.7 517.6,127.1 520.9,118.4 524.2,122.9 527.5,130.0 530.8,132.6 534.1,139.7 537.4,127.4 540.7,128.8 544.0,115.0 547.3,107.5 550.6,112.5 553.9,94.4 557.2,93.6 560.5,79.4 563.8,91.3 567.1,94.3 570.4,96.3 573.7,97.2 577.0,95.3 580.3,107.9 583.6,93.1 586.9,81.8 590.2,78.8 593.5,78.4 596.8,67.6 600.1,79.5 603.4,91.4 606.7,77.0 610.0,67.9 613.3,72.5 616.6,90.4 619.9,110.4 623.2,89.9 626.5,104.5 629.8,110.4 633.1,107.8 636.4,80.1 639.7,70.6 643.0,61.8 646.3,50.2 649.6,35.6 652.9,58.4 656.2,50.3 659.5,33.9 662.8,58.1 666.1,55.1 669.4,37.9 672.7,49.1 676.0,82.3 679.3,81.9 682.6,91.6 685.9,96.7 689.2,105.8 692.5,82.2 695.8,106.1 699.1,122.4 702.4,105.0 705.7,111.3 709.0,126.7 712.3,162.7 715.6,160.7 718.9,127.5 722.2,143.8 725.5,142.6 728.8,155.6 732.1,140.5 735.4,176.6 738.7,169.5 742.0,187.8 745.3,174.3 748.7,179.9 752.0,154.4 755.3,148.1 758.6,150.8 761.9,144.3 765.2,147.9 768.5,146.2 771.8,139.0 775.1,141.2 778.4,135.7 781.7,120.1 785.0,124.9 788.3,156.6 791.6,153.5 794.9,146.7 798.2,162.2 801.5,166.9 804.8,164.6 808.1,156.6 811.4,163.3 814.7,161.3 818.0,167.5 821.3,178.6 824.6,178.5 827.9,182.1 831.2,166.8 834.5,172.1 837.8,172.7 841.1,175.0 844.4,177.2 847.7,182.2 851.0,187.4 854.3,178.7 857.6,180.5 860.9,170.3 864.2,166.7 867.5,166.6 870.8,169.4 874.1,181.8 877.4,202.1 880.7,201.8 884.0,202.7" fill="none" stroke="#c9211e" stroke-width="1.6" stroke-linejoin="round"/>
<text x="56" y="284" font-size="11" fill="#57606a" text-anchor="end">成交额</text>
<rect x="61.0" y="288.3" width="2.0" height="55.7" fill="#8c959f" opacity="0.55"/>
<rect x="64.3" y="302.7" width="2.0" height="41.3" fill="#8c959f" opacity="0.55"/>
<rect x="67.6" y="306.3" width="2.0" height="37.7" fill="#8c959f" opacity="0.55"/>
<rect x="70.9" y="299.7" width="2.0" height="44.3" fill="#8c959f" opacity="0.55"/>
<rect x="74.2" y="302.7" width="2.0" height="41.3" fill="#8c959f" opacity="0.55"/>
<rect x="77.5" y="301.9" width="2.0" height="42.1" fill="#8c959f" opacity="0.55"/>
<rect x="80.8" y="305.9" width="2.0" height="38.1" fill="#8c959f" opacity="0.55"/>
<rect x="84.1" y="305.6" width="2.0" height="38.4" fill="#8c959f" opacity="0.55"/>
<rect x="87.4" y="305.3" width="2.0" height="38.7" fill="#8c959f" opacity="0.55"/>
<rect x="90.7" y="296.9" width="2.0" height="47.1" fill="#8c959f" opacity="0.55"/>
<rect x="94.0" y="299.3" width="2.0" height="44.7" fill="#8c959f" opacity="0.55"/>
<rect x="97.3" y="302.2" width="2.0" height="41.8" fill="#8c959f" opacity="0.55"/>
<rect x="100.6" y="298.2" width="2.0" height="45.8" fill="#8c959f" opacity="0.55"/>
<rect x="103.9" y="307.2" width="2.0" height="36.8" fill="#8c959f" opacity="0.55"/>
<rect x="107.2" y="309.7" width="2.0" height="34.3" fill="#8c959f" opacity="0.55"/>
<rect x="110.5" y="309.6" width="2.0" height="34.4" fill="#8c959f" opacity="0.55"/>
<rect x="113.8" y="313.1" width="2.0" height="30.9" fill="#8c959f" opacity="0.55"/>
<rect x="117.1" y="310.7" width="2.0" height="33.3" fill="#8c959f" opacity="0.55"/>
<rect x="120.4" y="314.4" width="2.0" height="29.6" fill="#8c959f" opacity="0.55"/>
<rect x="123.7" y="314.8" width="2.0" height="29.2" fill="#8c959f" opacity="0.55"/>
<rect x="127.0" y="308.9" width="2.0" height="35.1" fill="#8c959f" opacity="0.55"/>
<rect x="130.3" y="302.4" width="2.0" height="41.6" fill="#8c959f" opacity="0.55"/>
<rect x="133.6" y="305.9" width="2.0" height="38.1" fill="#8c959f" opacity="0.55"/>
<rect x="136.9" y="303.9" width="2.0" height="40.1" fill="#8c959f" opacity="0.55"/>
<rect x="140.2" y="301.0" width="2.0" height="43.0" fill="#8c959f" opacity="0.55"/>
<rect x="143.5" y="302.8" width="2.0" height="41.2" fill="#8c959f" opacity="0.55"/>
<rect x="146.8" y="306.6" width="2.0" height="37.4" fill="#8c959f" opacity="0.55"/>
<rect x="150.1" y="310.0" width="2.0" height="34.0" fill="#8c959f" opacity="0.55"/>
<rect x="153.4" y="310.7" width="2.0" height="33.3" fill="#8c959f" opacity="0.55"/>
<rect x="156.7" y="307.5" width="2.0" height="36.5" fill="#8c959f" opacity="0.55"/>
<rect x="160.0" y="308.5" width="2.0" height="35.5" fill="#8c959f" opacity="0.55"/>
<rect x="163.3" y="305.4" width="2.0" height="38.6" fill="#8c959f" opacity="0.55"/>
<rect x="166.6" y="308.6" width="2.0" height="35.4" fill="#8c959f" opacity="0.55"/>
<rect x="169.9" y="309.5" width="2.0" height="34.5" fill="#8c959f" opacity="0.55"/>
<rect x="173.2" y="307.7" width="2.0" height="36.3" fill="#8c959f" opacity="0.55"/>
<rect x="176.5" y="309.2" width="2.0" height="34.8" fill="#8c959f" opacity="0.55"/>
<rect x="179.8" y="310.1" width="2.0" height="33.9" fill="#8c959f" opacity="0.55"/>
<rect x="183.1" y="309.8" width="2.0" height="34.2" fill="#8c959f" opacity="0.55"/>
<rect x="186.4" y="313.3" width="2.0" height="30.7" fill="#8c959f" opacity="0.55"/>
<rect x="189.7" y="313.7" width="2.0" height="30.3" fill="#8c959f" opacity="0.55"/>
<rect x="193.0" y="309.1" width="2.0" height="34.9" fill="#8c959f" opacity="0.55"/>
<rect x="196.3" y="313.3" width="2.0" height="30.7" fill="#8c959f" opacity="0.55"/>
<rect x="199.6" y="311.8" width="2.0" height="32.2" fill="#8c959f" opacity="0.55"/>
<rect x="202.9" y="312.3" width="2.0" height="31.7" fill="#8c959f" opacity="0.55"/>
<rect x="206.2" y="313.6" width="2.0" height="30.4" fill="#8c959f" opacity="0.55"/>
<rect x="209.5" y="315.8" width="2.0" height="28.2" fill="#8c959f" opacity="0.55"/>
<rect x="212.8" y="310.7" width="2.0" height="33.3" fill="#8c959f" opacity="0.55"/>
<rect x="216.1" y="315.7" width="2.0" height="28.3" fill="#8c959f" opacity="0.55"/>
<rect x="219.4" y="314.3" width="2.0" height="29.7" fill="#8c959f" opacity="0.55"/>
<rect x="222.7" y="316.5" width="2.0" height="27.5" fill="#8c959f" opacity="0.55"/>
<rect x="226.0" y="313.4" width="2.0" height="30.6" fill="#8c959f" opacity="0.55"/>
<rect x="229.3" y="307.8" width="2.0" height="36.2" fill="#8c959f" opacity="0.55"/>
<rect x="232.6" y="310.2" width="2.0" height="33.8" fill="#8c959f" opacity="0.55"/>
<rect x="235.9" y="312.4" width="2.0" height="31.6" fill="#8c959f" opacity="0.55"/>
<rect x="239.2" y="311.0" width="2.0" height="33.0" fill="#8c959f" opacity="0.55"/>
<rect x="242.5" y="306.8" width="2.0" height="37.2" fill="#8c959f" opacity="0.55"/>
<rect x="245.8" y="312.5" width="2.0" height="31.5" fill="#8c959f" opacity="0.55"/>
<rect x="249.1" y="313.4" width="2.0" height="30.6" fill="#8c959f" opacity="0.55"/>
<rect x="252.4" y="311.8" width="2.0" height="32.2" fill="#8c959f" opacity="0.55"/>
<rect x="255.7" y="314.6" width="2.0" height="29.4" fill="#8c959f" opacity="0.55"/>
<rect x="259.0" y="313.3" width="2.0" height="30.7" fill="#8c959f" opacity="0.55"/>
<rect x="262.4" y="310.9" width="2.0" height="33.1" fill="#8c959f" opacity="0.55"/>
<rect x="265.7" y="310.3" width="2.0" height="33.7" fill="#8c959f" opacity="0.55"/>
<rect x="269.0" y="310.6" width="2.0" height="33.4" fill="#8c959f" opacity="0.55"/>
<rect x="272.3" y="309.8" width="2.0" height="34.2" fill="#8c959f" opacity="0.55"/>
<rect x="275.6" y="305.6" width="2.0" height="38.4" fill="#8c959f" opacity="0.55"/>
<rect x="278.9" y="306.0" width="2.0" height="38.0" fill="#8c959f" opacity="0.55"/>
<rect x="282.2" y="305.9" width="2.0" height="38.1" fill="#8c959f" opacity="0.55"/>
<rect x="285.5" y="307.7" width="2.0" height="36.3" fill="#8c959f" opacity="0.55"/>
<rect x="288.8" y="298.8" width="2.0" height="45.2" fill="#8c959f" opacity="0.55"/>
<rect x="292.1" y="294.2" width="2.0" height="49.8" fill="#8c959f" opacity="0.55"/>
<rect x="295.4" y="293.3" width="2.0" height="50.7" fill="#8c959f" opacity="0.55"/>
<rect x="298.7" y="294.3" width="2.0" height="49.7" fill="#8c959f" opacity="0.55"/>
<rect x="302.0" y="288.5" width="2.0" height="55.5" fill="#8c959f" opacity="0.55"/>
<rect x="305.3" y="280.0" width="2.0" height="64.0" fill="#8c959f" opacity="0.55"/>
<rect x="308.6" y="279.2" width="2.0" height="64.8" fill="#8c959f" opacity="0.55"/>
<rect x="311.9" y="274.0" width="2.0" height="70.0" fill="#8c959f" opacity="0.55"/>
<rect x="315.2" y="292.4" width="2.0" height="51.6" fill="#8c959f" opacity="0.55"/>
<rect x="318.5" y="290.3" width="2.0" height="53.7" fill="#8c959f" opacity="0.55"/>
<rect x="321.8" y="295.9" width="2.0" height="48.1" fill="#8c959f" opacity="0.55"/>
<rect x="325.1" y="294.7" width="2.0" height="49.3" fill="#8c959f" opacity="0.55"/>
<rect x="328.4" y="297.8" width="2.0" height="46.2" fill="#8c959f" opacity="0.55"/>
<rect x="331.7" y="296.2" width="2.0" height="47.8" fill="#8c959f" opacity="0.55"/>
<rect x="335.0" y="289.2" width="2.0" height="54.8" fill="#8c959f" opacity="0.55"/>
<rect x="338.3" y="286.3" width="2.0" height="57.7" fill="#8c959f" opacity="0.55"/>
<rect x="341.6" y="292.6" width="2.0" height="51.4" fill="#8c959f" opacity="0.55"/>
<rect x="344.9" y="291.3" width="2.0" height="52.7" fill="#8c959f" opacity="0.55"/>
<rect x="348.2" y="286.6" width="2.0" height="57.4" fill="#8c959f" opacity="0.55"/>
<rect x="351.5" y="293.6" width="2.0" height="50.4" fill="#8c959f" opacity="0.55"/>
<rect x="354.8" y="298.1" width="2.0" height="45.9" fill="#8c959f" opacity="0.55"/>
<rect x="358.1" y="298.8" width="2.0" height="45.2" fill="#8c959f" opacity="0.55"/>
<rect x="361.4" y="299.9" width="2.0" height="44.1" fill="#8c959f" opacity="0.55"/>
<rect x="364.7" y="305.4" width="2.0" height="38.6" fill="#8c959f" opacity="0.55"/>
<rect x="368.0" y="305.9" width="2.0" height="38.1" fill="#8c959f" opacity="0.55"/>
<rect x="371.3" y="304.0" width="2.0" height="40.0" fill="#8c959f" opacity="0.55"/>
<rect x="374.6" y="306.6" width="2.0" height="37.4" fill="#8c959f" opacity="0.55"/>
<rect x="377.9" y="308.8" width="2.0" height="35.2" fill="#8c959f" opacity="0.55"/>
<rect x="381.2" y="306.0" width="2.0" height="38.0" fill="#8c959f" opacity="0.55"/>
<rect x="384.5" y="308.8" width="2.0" height="35.2" fill="#8c959f" opacity="0.55"/>
<rect x="387.8" y="304.9" width="2.0" height="39.1" fill="#8c959f" opacity="0.55"/>
<rect x="391.1" y="300.3" width="2.0" height="43.7" fill="#8c959f" opacity="0.55"/>
<rect x="394.4" y="298.9" width="2.0" height="45.1" fill="#8c959f" opacity="0.55"/>
<rect x="397.7" y="299.8" width="2.0" height="44.2" fill="#8c959f" opacity="0.55"/>
<rect x="401.0" y="290.4" width="2.0" height="53.6" fill="#8c959f" opacity="0.55"/>
<rect x="404.3" y="288.4" width="2.0" height="55.6" fill="#8c959f" opacity="0.55"/>
<rect x="407.6" y="302.0" width="2.0" height="42.0" fill="#8c959f" opacity="0.55"/>
<rect x="410.9" y="301.6" width="2.0" height="42.4" fill="#8c959f" opacity="0.55"/>
<rect x="414.2" y="304.9" width="2.0" height="39.1" fill="#8c959f" opacity="0.55"/>
<rect x="417.5" y="297.0" width="2.0" height="47.0" fill="#8c959f" opacity="0.55"/>
<rect x="420.8" y="301.4" width="2.0" height="42.6" fill="#8c959f" opacity="0.55"/>
<rect x="424.1" y="299.5" width="2.0" height="44.5" fill="#8c959f" opacity="0.55"/>
<rect x="427.4" y="300.6" width="2.0" height="43.4" fill="#8c959f" opacity="0.55"/>
<rect x="430.7" y="301.4" width="2.0" height="42.6" fill="#8c959f" opacity="0.55"/>
<rect x="434.0" y="302.7" width="2.0" height="41.3" fill="#8c959f" opacity="0.55"/>
<rect x="437.3" y="304.8" width="2.0" height="39.2" fill="#8c959f" opacity="0.55"/>
<rect x="440.6" y="307.7" width="2.0" height="36.3" fill="#8c959f" opacity="0.55"/>
<rect x="443.9" y="306.5" width="2.0" height="37.5" fill="#8c959f" opacity="0.55"/>
<rect x="447.2" y="303.4" width="2.0" height="40.6" fill="#8c959f" opacity="0.55"/>
<rect x="450.5" y="300.8" width="2.0" height="43.2" fill="#8c959f" opacity="0.55"/>
<rect x="453.8" y="307.0" width="2.0" height="37.0" fill="#8c959f" opacity="0.55"/>
<rect x="457.1" y="305.3" width="2.0" height="38.7" fill="#8c959f" opacity="0.55"/>
<rect x="460.4" y="309.5" width="2.0" height="34.5" fill="#8c959f" opacity="0.55"/>
<rect x="463.7" y="311.1" width="2.0" height="32.9" fill="#8c959f" opacity="0.55"/>
<rect x="467.0" y="310.0" width="2.0" height="34.0" fill="#8c959f" opacity="0.55"/>
<rect x="470.3" y="308.6" width="2.0" height="35.4" fill="#8c959f" opacity="0.55"/>
<rect x="473.6" y="308.3" width="2.0" height="35.7" fill="#8c959f" opacity="0.55"/>
<rect x="476.9" y="311.3" width="2.0" height="32.7" fill="#8c959f" opacity="0.55"/>
<rect x="480.2" y="314.6" width="2.0" height="29.4" fill="#8c959f" opacity="0.55"/>
<rect x="483.5" y="315.3" width="2.0" height="28.7" fill="#8c959f" opacity="0.55"/>
<rect x="486.8" y="300.8" width="2.0" height="43.2" fill="#8c959f" opacity="0.55"/>
<rect x="490.1" y="306.1" width="2.0" height="37.9" fill="#8c959f" opacity="0.55"/>
<rect x="493.4" y="302.7" width="2.0" height="41.3" fill="#8c959f" opacity="0.55"/>
<rect x="496.7" y="305.8" width="2.0" height="38.2" fill="#8c959f" opacity="0.55"/>
<rect x="500.0" y="301.7" width="2.0" height="42.3" fill="#8c959f" opacity="0.55"/>
<rect x="503.3" y="301.1" width="2.0" height="42.9" fill="#8c959f" opacity="0.55"/>
<rect x="506.6" y="302.4" width="2.0" height="41.6" fill="#8c959f" opacity="0.55"/>
<rect x="509.9" y="300.9" width="2.0" height="43.1" fill="#8c959f" opacity="0.55"/>
<rect x="513.2" y="298.2" width="2.0" height="45.8" fill="#8c959f" opacity="0.55"/>
<rect x="516.5" y="301.2" width="2.0" height="42.8" fill="#8c959f" opacity="0.55"/>
<rect x="519.8" y="298.5" width="2.0" height="45.5" fill="#8c959f" opacity="0.55"/>
<rect x="523.1" y="294.2" width="2.0" height="49.8" fill="#8c959f" opacity="0.55"/>
<rect x="526.4" y="297.1" width="2.0" height="46.9" fill="#8c959f" opacity="0.55"/>
<rect x="529.7" y="298.0" width="2.0" height="46.0" fill="#8c959f" opacity="0.55"/>
<rect x="533.0" y="299.0" width="2.0" height="45.0" fill="#8c959f" opacity="0.55"/>
<rect x="536.4" y="298.0" width="2.0" height="46.0" fill="#8c959f" opacity="0.55"/>
<rect x="539.7" y="295.3" width="2.0" height="48.7" fill="#8c959f" opacity="0.55"/>
<rect x="543.0" y="286.7" width="2.0" height="57.3" fill="#8c959f" opacity="0.55"/>
<rect x="546.3" y="288.2" width="2.0" height="55.8" fill="#8c959f" opacity="0.55"/>
<rect x="549.6" y="289.9" width="2.0" height="54.1" fill="#8c959f" opacity="0.55"/>
<rect x="552.9" y="281.2" width="2.0" height="62.8" fill="#8c959f" opacity="0.55"/>
<rect x="556.2" y="286.4" width="2.0" height="57.6" fill="#8c959f" opacity="0.55"/>
<rect x="559.5" y="286.5" width="2.0" height="57.5" fill="#8c959f" opacity="0.55"/>
<rect x="562.8" y="284.3" width="2.0" height="59.7" fill="#8c959f" opacity="0.55"/>
<rect x="566.1" y="284.6" width="2.0" height="59.4" fill="#8c959f" opacity="0.55"/>
<rect x="569.4" y="292.6" width="2.0" height="51.4" fill="#8c959f" opacity="0.55"/>
<rect x="572.7" y="292.7" width="2.0" height="51.3" fill="#8c959f" opacity="0.55"/>
<rect x="576.0" y="291.5" width="2.0" height="52.5" fill="#8c959f" opacity="0.55"/>
<rect x="579.3" y="282.2" width="2.0" height="61.8" fill="#8c959f" opacity="0.55"/>
<rect x="582.6" y="292.4" width="2.0" height="51.6" fill="#8c959f" opacity="0.55"/>
<rect x="585.9" y="287.1" width="2.0" height="56.9" fill="#8c959f" opacity="0.55"/>
<rect x="589.2" y="286.4" width="2.0" height="57.6" fill="#8c959f" opacity="0.55"/>
<rect x="592.5" y="286.5" width="2.0" height="57.5" fill="#8c959f" opacity="0.55"/>
<rect x="595.8" y="291.3" width="2.0" height="52.7" fill="#8c959f" opacity="0.55"/>
<rect x="599.1" y="285.1" width="2.0" height="58.9" fill="#8c959f" opacity="0.55"/>
<rect x="602.4" y="292.9" width="2.0" height="51.1" fill="#8c959f" opacity="0.55"/>
<rect x="605.7" y="294.4" width="2.0" height="49.6" fill="#8c959f" opacity="0.55"/>
<rect x="609.0" y="288.4" width="2.0" height="55.6" fill="#8c959f" opacity="0.55"/>
<rect x="612.3" y="295.0" width="2.0" height="49.0" fill="#8c959f" opacity="0.55"/>
<rect x="615.6" y="289.5" width="2.0" height="54.5" fill="#8c959f" opacity="0.55"/>
<rect x="618.9" y="294.4" width="2.0" height="49.6" fill="#8c959f" opacity="0.55"/>
<rect x="622.2" y="297.1" width="2.0" height="46.9" fill="#8c959f" opacity="0.55"/>
<rect x="625.5" y="297.5" width="2.0" height="46.5" fill="#8c959f" opacity="0.55"/>
<rect x="628.8" y="298.7" width="2.0" height="45.3" fill="#8c959f" opacity="0.55"/>
<rect x="632.1" y="286.9" width="2.0" height="57.1" fill="#8c959f" opacity="0.55"/>
<rect x="635.4" y="290.2" width="2.0" height="53.8" fill="#8c959f" opacity="0.55"/>
<rect x="638.7" y="289.6" width="2.0" height="54.4" fill="#8c959f" opacity="0.55"/>
<rect x="642.0" y="289.1" width="2.0" height="54.9" fill="#8c959f" opacity="0.55"/>
<rect x="645.3" y="285.2" width="2.0" height="58.8" fill="#8c959f" opacity="0.55"/>
<rect x="648.6" y="277.6" width="2.0" height="66.4" fill="#8c959f" opacity="0.55"/>
<rect x="651.9" y="282.9" width="2.0" height="61.1" fill="#8c959f" opacity="0.55"/>
<rect x="655.2" y="285.7" width="2.0" height="58.3" fill="#8c959f" opacity="0.55"/>
<rect x="658.5" y="280.2" width="2.0" height="63.8" fill="#8c959f" opacity="0.55"/>
<rect x="661.8" y="280.9" width="2.0" height="63.1" fill="#8c959f" opacity="0.55"/>
<rect x="665.1" y="281.5" width="2.0" height="62.5" fill="#8c959f" opacity="0.55"/>
<rect x="668.4" y="285.9" width="2.0" height="58.1" fill="#8c959f" opacity="0.55"/>
<rect x="671.7" y="279.0" width="2.0" height="65.0" fill="#8c959f" opacity="0.55"/>
<rect x="675.0" y="282.7" width="2.0" height="61.3" fill="#8c959f" opacity="0.55"/>
<rect x="678.3" y="287.5" width="2.0" height="56.5" fill="#8c959f" opacity="0.55"/>
<rect x="681.6" y="289.1" width="2.0" height="54.9" fill="#8c959f" opacity="0.55"/>
<rect x="684.9" y="298.2" width="2.0" height="45.8" fill="#8c959f" opacity="0.55"/>
<rect x="688.2" y="298.5" width="2.0" height="45.5" fill="#8c959f" opacity="0.55"/>
<rect x="691.5" y="292.3" width="2.0" height="51.7" fill="#8c959f" opacity="0.55"/>
<rect x="694.8" y="283.8" width="2.0" height="60.2" fill="#8c959f" opacity="0.55"/>
<rect x="698.1" y="294.0" width="2.0" height="50.0" fill="#8c959f" opacity="0.55"/>
<rect x="701.4" y="296.0" width="2.0" height="48.0" fill="#8c959f" opacity="0.55"/>
<rect x="704.7" y="298.3" width="2.0" height="45.7" fill="#8c959f" opacity="0.55"/>
<rect x="708.0" y="301.3" width="2.0" height="42.7" fill="#8c959f" opacity="0.55"/>
<rect x="711.3" y="296.8" width="2.0" height="47.2" fill="#8c959f" opacity="0.55"/>
<rect x="714.6" y="296.0" width="2.0" height="48.0" fill="#8c959f" opacity="0.55"/>
<rect x="717.9" y="291.5" width="2.0" height="52.5" fill="#8c959f" opacity="0.55"/>
<rect x="721.2" y="296.9" width="2.0" height="47.1" fill="#8c959f" opacity="0.55"/>
<rect x="724.5" y="305.0" width="2.0" height="39.0" fill="#8c959f" opacity="0.55"/>
<rect x="727.8" y="309.7" width="2.0" height="34.3" fill="#8c959f" opacity="0.55"/>
<rect x="731.1" y="307.1" width="2.0" height="36.9" fill="#8c959f" opacity="0.55"/>
<rect x="734.4" y="308.0" width="2.0" height="36.0" fill="#8c959f" opacity="0.55"/>
<rect x="737.7" y="303.2" width="2.0" height="40.8" fill="#8c959f" opacity="0.55"/>
<rect x="741.0" y="302.4" width="2.0" height="41.6" fill="#8c959f" opacity="0.55"/>
<rect x="744.3" y="298.9" width="2.0" height="45.1" fill="#8c959f" opacity="0.55"/>
<rect x="747.6" y="308.5" width="2.0" height="35.5" fill="#8c959f" opacity="0.55"/>
<rect x="750.9" y="304.7" width="2.0" height="39.3" fill="#8c959f" opacity="0.55"/>
<rect x="754.2" y="296.8" width="2.0" height="47.2" fill="#8c959f" opacity="0.55"/>
<rect x="757.5" y="299.1" width="2.0" height="44.9" fill="#8c959f" opacity="0.55"/>
<rect x="760.8" y="296.7" width="2.0" height="47.3" fill="#8c959f" opacity="0.55"/>
<rect x="764.1" y="299.2" width="2.0" height="44.8" fill="#8c959f" opacity="0.55"/>
<rect x="767.4" y="302.8" width="2.0" height="41.2" fill="#8c959f" opacity="0.55"/>
<rect x="770.7" y="305.8" width="2.0" height="38.2" fill="#8c959f" opacity="0.55"/>
<rect x="774.0" y="298.7" width="2.0" height="45.3" fill="#8c959f" opacity="0.55"/>
<rect x="777.3" y="305.9" width="2.0" height="38.1" fill="#8c959f" opacity="0.55"/>
<rect x="780.6" y="301.6" width="2.0" height="42.4" fill="#8c959f" opacity="0.55"/>
<rect x="783.9" y="301.4" width="2.0" height="42.6" fill="#8c959f" opacity="0.55"/>
<rect x="787.2" y="299.4" width="2.0" height="44.6" fill="#8c959f" opacity="0.55"/>
<rect x="790.5" y="307.1" width="2.0" height="36.9" fill="#8c959f" opacity="0.55"/>
<rect x="793.8" y="310.6" width="2.0" height="33.4" fill="#8c959f" opacity="0.55"/>
<rect x="797.1" y="308.3" width="2.0" height="35.7" fill="#8c959f" opacity="0.55"/>
<rect x="800.4" y="311.5" width="2.0" height="32.5" fill="#8c959f" opacity="0.55"/>
<rect x="803.7" y="311.9" width="2.0" height="32.1" fill="#8c959f" opacity="0.55"/>
<rect x="807.0" y="306.2" width="2.0" height="37.8" fill="#8c959f" opacity="0.55"/>
<rect x="810.4" y="306.7" width="2.0" height="37.3" fill="#8c959f" opacity="0.55"/>
<rect x="813.7" y="306.2" width="2.0" height="37.8" fill="#8c959f" opacity="0.55"/>
<rect x="817.0" y="307.9" width="2.0" height="36.1" fill="#8c959f" opacity="0.55"/>
<rect x="820.3" y="312.2" width="2.0" height="31.8" fill="#8c959f" opacity="0.55"/>
<rect x="823.6" y="312.8" width="2.0" height="31.2" fill="#8c959f" opacity="0.55"/>
<rect x="826.9" y="307.9" width="2.0" height="36.1" fill="#8c959f" opacity="0.55"/>
<rect x="830.2" y="309.4" width="2.0" height="34.6" fill="#8c959f" opacity="0.55"/>
<rect x="833.5" y="309.2" width="2.0" height="34.8" fill="#8c959f" opacity="0.55"/>
<rect x="836.8" y="311.0" width="2.0" height="33.0" fill="#8c959f" opacity="0.55"/>
<rect x="840.1" y="314.7" width="2.0" height="29.3" fill="#8c959f" opacity="0.55"/>
<rect x="843.4" y="309.0" width="2.0" height="35.0" fill="#8c959f" opacity="0.55"/>
<rect x="846.7" y="315.1" width="2.0" height="28.9" fill="#8c959f" opacity="0.55"/>
<rect x="850.0" y="315.4" width="2.0" height="28.6" fill="#8c959f" opacity="0.55"/>
<rect x="853.3" y="311.3" width="2.0" height="32.7" fill="#8c959f" opacity="0.55"/>
<rect x="856.6" y="311.6" width="2.0" height="32.4" fill="#8c959f" opacity="0.55"/>
<rect x="859.9" y="307.1" width="2.0" height="36.9" fill="#8c959f" opacity="0.55"/>
<rect x="863.2" y="307.9" width="2.0" height="36.1" fill="#8c959f" opacity="0.55"/>
<rect x="866.5" y="306.1" width="2.0" height="37.9" fill="#8c959f" opacity="0.55"/>
<rect x="869.8" y="312.7" width="2.0" height="31.3" fill="#8c959f" opacity="0.55"/>
<rect x="873.1" y="314.6" width="2.0" height="29.4" fill="#8c959f" opacity="0.55"/>
<rect x="876.4" y="313.8" width="2.0" height="30.2" fill="#8c959f" opacity="0.55"/>
<rect x="879.7" y="319.0" width="2.0" height="25.0" fill="#8c959f" opacity="0.55"/>
<rect x="883.0" y="318.5" width="2.0" height="25.5" fill="#8c959f" opacity="0.55"/>
<text x="884" y="284" font-size="11" fill="#57606a" text-anchor="end">峰值 39415 亿</text>
<text x="62.0" y="264" font-size="11" fill="#57606a" text-anchor="start">2025-09-18</text>
<text x="474.7" y="264" font-size="11" fill="#57606a" text-anchor="middle">2026-04-01</text>
<text x="884.0" y="264" font-size="11" fill="#57606a" text-anchor="end">2026-09-30</text>
<text x="884" y="13" font-size="12" fill="#57606a" text-anchor="end">3135.28　区间 +1.3%</text>
</svg>